<?xml version="1.0" encoding="utf-8" standalone="no"?>
<!DOCTYPE svg PUBLIC "-//W3C//DTD SVG 1.1//EN"
  "http://www.w3.org/Graphics/SVG/1.1/DTD/svg11.dtd">
<!-- Created with matplotlib (https://matplotlib.org/) -->
<svg height="288pt" version="1.1" viewBox="0 0 432 288" width="432pt" xmlns="http://www.w3.org/2000/svg" xmlns:xlink="http://www.w3.org/1999/xlink">
 <metadata>
  <rdf:RDF xmlns:cc="http://creativecommons.org/ns#" xmlns:dc="http://purl.org/dc/elements/1.1/" xmlns:rdf="http://www.w3.org/1999/02/22-rdf-syntax-ns#">
   <cc:Work>
    <dc:type rdf:resource="http://purl.org/dc/dcmitype/StillImage"/>
    <dc:date>2022-03-31T12:05:19.220149</dc:date>
    <dc:format>image/svg+xml</dc:format>
    <dc:creator>
     <cc:Agent>
      <dc:title>Matplotlib v3.3.4, https://matplotlib.org/</dc:title>
     </cc:Agent>
    </dc:creator>
   </cc:Work>
  </rdf:RDF>
 </metadata>
 <defs>
  <style type="text/css">*{stroke-linecap:butt;stroke-linejoin:round;}</style>
 </defs>
 <g id="figure_1">
  <g id="patch_1">
   <path d="M 0 288 
L 432 288 
L 432 0 
L 0 0 
z
" style="fill:none;"/>
  </g>
  <g id="axes_1">
   <g id="patch_2">
    <path d="M 54 252 
L 388.8 252 
L 388.8 34.56 
L 54 34.56 
z
" style="fill:#ffffff;"/>
   </g>
   <g id="PathCollection_1">
    <defs>
     <path d="M 0 3 
C 0.795609 3 1.55874 2.683901 2.12132 2.12132 
C 2.683901 1.55874 3 0.795609 3 0 
C 3 -0.795609 2.683901 -1.55874 2.12132 -2.12132 
C 1.55874 -2.683901 0.795609 -3 0 -3 
C -0.795609 -3 -1.55874 -2.683901 -2.12132 -2.12132 
C -2.683901 -1.55874 -3 -0.795609 -3 0 
C -3 0.795609 -2.683901 1.55874 -2.12132 2.12132 
C -1.55874 2.683901 -0.795609 3 0 3 
z
" id="mc03a15637c" style="stroke:#ff0000;stroke-opacity:0.8;"/>
    </defs>
    <g clip-path="url(#p36809b7478)">
     <use style="fill:#ff0000;fill-opacity:0.8;stroke:#ff0000;stroke-opacity:0.8;" x="330.21" xlink:href="#mc03a15637c" y="211.367273"/>
     <use style="fill:#ff0000;fill-opacity:0.8;stroke:#ff0000;stroke-opacity:0.8;" x="204.66" xlink:href="#mc03a15637c" y="117.655758"/>
     <use style="fill:#ff0000;fill-opacity:0.8;stroke:#ff0000;stroke-opacity:0.8;" x="221.4" xlink:href="#mc03a15637c" y="171.832727"/>
     <use style="fill:#ff0000;fill-opacity:0.8;stroke:#ff0000;stroke-opacity:0.8;" x="187.92" xlink:href="#mc03a15637c" y="130.833939"/>
     <use style="fill:#ff0000;fill-opacity:0.8;stroke:#ff0000;stroke-opacity:0.8;" x="204.66" xlink:href="#mc03a15637c" y="201.117576"/>
     <use style="fill:#ff0000;fill-opacity:0.8;stroke:#ff0000;stroke-opacity:0.8;" x="154.44" xlink:href="#mc03a15637c" y="142.547879"/>
     <use style="fill:#ff0000;fill-opacity:0.8;stroke:#ff0000;stroke-opacity:0.8;" x="213.03" xlink:href="#mc03a15637c" y="133.762424"/>
     <use style="fill:#ff0000;fill-opacity:0.8;stroke:#ff0000;stroke-opacity:0.8;" x="213.03" xlink:href="#mc03a15637c" y="92.763636"/>
     <use style="fill:#ff0000;fill-opacity:0.8;stroke:#ff0000;stroke-opacity:0.8;" x="271.62" xlink:href="#mc03a15637c" y="177.689697"/>
     <use style="fill:#ff0000;fill-opacity:0.8;stroke:#ff0000;stroke-opacity:0.8;" x="305.1" xlink:href="#mc03a15637c" y="164.511515"/>
     <use style="fill:#ff0000;fill-opacity:0.8;stroke:#ff0000;stroke-opacity:0.8;" x="238.14" xlink:href="#mc03a15637c" y="149.869091"/>
     <use style="fill:#ff0000;fill-opacity:0.8;stroke:#ff0000;stroke-opacity:0.8;" x="187.92" xlink:href="#mc03a15637c" y="185.010909"/>
     <use style="fill:#ff0000;fill-opacity:0.8;stroke:#ff0000;stroke-opacity:0.8;" x="271.62" xlink:href="#mc03a15637c" y="164.511515"/>
     <use style="fill:#ff0000;fill-opacity:0.8;stroke:#ff0000;stroke-opacity:0.8;" x="146.07" xlink:href="#mc03a15637c" y="79.585455"/>
     <use style="fill:#ff0000;fill-opacity:0.8;stroke:#ff0000;stroke-opacity:0.8;" x="229.77" xlink:href="#mc03a15637c" y="204.046061"/>
     <use style="fill:#ff0000;fill-opacity:0.8;stroke:#ff0000;stroke-opacity:0.8;" x="238.14" xlink:href="#mc03a15637c" y="146.940606"/>
     <use style="fill:#ff0000;fill-opacity:0.8;stroke:#ff0000;stroke-opacity:0.8;" x="129.33" xlink:href="#mc03a15637c" y="157.190303"/>
     <use style="fill:#ff0000;fill-opacity:0.8;stroke:#ff0000;stroke-opacity:0.8;" x="213.03" xlink:href="#mc03a15637c" y="185.010909"/>
     <use style="fill:#ff0000;fill-opacity:0.8;stroke:#ff0000;stroke-opacity:0.8;" x="112.59" xlink:href="#mc03a15637c" y="73.728485"/>
     <use style="fill:#ff0000;fill-opacity:0.8;stroke:#ff0000;stroke-opacity:0.8;" x="238.14" xlink:href="#mc03a15637c" y="116.191515"/>
     <use style="fill:#ff0000;fill-opacity:0.8;stroke:#ff0000;stroke-opacity:0.8;" x="79.11" xlink:href="#mc03a15637c" y="133.762424"/>
     <use style="fill:#ff0000;fill-opacity:0.8;stroke:#ff0000;stroke-opacity:0.8;" x="187.92" xlink:href="#mc03a15637c" y="164.511515"/>
     <use style="fill:#ff0000;fill-opacity:0.8;stroke:#ff0000;stroke-opacity:0.8;" x="263.25" xlink:href="#mc03a15637c" y="91.299394"/>
     <use style="fill:#ff0000;fill-opacity:0.8;stroke:#ff0000;stroke-opacity:0.8;" x="246.51" xlink:href="#mc03a15637c" y="117.655758"/>
     <use style="fill:#ff0000;fill-opacity:0.8;stroke:#ff0000;stroke-opacity:0.8;" x="238.14" xlink:href="#mc03a15637c" y="160.118788"/>
     <use style="fill:#ff0000;fill-opacity:0.8;stroke:#ff0000;stroke-opacity:0.8;" x="204.66" xlink:href="#mc03a15637c" y="117.655758"/>
     <use style="fill:#ff0000;fill-opacity:0.8;stroke:#ff0000;stroke-opacity:0.8;" x="154.44" xlink:href="#mc03a15637c" y="104.477576"/>
     <use style="fill:#ff0000;fill-opacity:0.8;stroke:#ff0000;stroke-opacity:0.8;" x="187.92" xlink:href="#mc03a15637c" y="149.869091"/>
     <use style="fill:#ff0000;fill-opacity:0.8;stroke:#ff0000;stroke-opacity:0.8;" x="54" xlink:href="#mc03a15637c" y="83.978182"/>
     <use style="fill:#ff0000;fill-opacity:0.8;stroke:#ff0000;stroke-opacity:0.8;" x="187.92" xlink:href="#mc03a15637c" y="145.476364"/>
     <use style="fill:#ff0000;fill-opacity:0.8;stroke:#ff0000;stroke-opacity:0.8;" x="246.51" xlink:href="#mc03a15637c" y="190.867879"/>
     <use style="fill:#ff0000;fill-opacity:0.8;stroke:#ff0000;stroke-opacity:0.8;" x="254.88" xlink:href="#mc03a15637c" y="183.546667"/>
     <use style="fill:#ff0000;fill-opacity:0.8;stroke:#ff0000;stroke-opacity:0.8;" x="112.59" xlink:href="#mc03a15637c" y="95.692121"/>
     <use style="fill:#ff0000;fill-opacity:0.8;stroke:#ff0000;stroke-opacity:0.8;" x="112.59" xlink:href="#mc03a15637c" y="157.190303"/>
     <use style="fill:#ff0000;fill-opacity:0.8;stroke:#ff0000;stroke-opacity:0.8;" x="146.07" xlink:href="#mc03a15637c" y="145.476364"/>
     <use style="fill:#ff0000;fill-opacity:0.8;stroke:#ff0000;stroke-opacity:0.8;" x="146.07" xlink:href="#mc03a15637c" y="114.727273"/>
     <use style="fill:#ff0000;fill-opacity:0.8;stroke:#ff0000;stroke-opacity:0.8;" x="305.1" xlink:href="#mc03a15637c" y="173.29697"/>
     <use style="fill:#ff0000;fill-opacity:0.8;stroke:#ff0000;stroke-opacity:0.8;" x="137.7" xlink:href="#mc03a15637c" y="161.58303"/>
     <use style="fill:#ff0000;fill-opacity:0.8;stroke:#ff0000;stroke-opacity:0.8;" x="154.44" xlink:href="#mc03a15637c" y="205.510303"/>
     <use style="fill:#ff0000;fill-opacity:0.8;stroke:#ff0000;stroke-opacity:0.8;" x="204.66" xlink:href="#mc03a15637c" y="160.118788"/>
     <use style="fill:#ff0000;fill-opacity:0.8;stroke:#ff0000;stroke-opacity:0.8;" x="246.51" xlink:href="#mc03a15637c" y="163.047273"/>
     <use style="fill:#ff0000;fill-opacity:0.8;stroke:#ff0000;stroke-opacity:0.8;" x="137.7" xlink:href="#mc03a15637c" y="101.549091"/>
     <use style="fill:#ff0000;fill-opacity:0.8;stroke:#ff0000;stroke-opacity:0.8;" x="213.03" xlink:href="#mc03a15637c" y="95.692121"/>
     <use style="fill:#ff0000;fill-opacity:0.8;stroke:#ff0000;stroke-opacity:0.8;" x="271.62" xlink:href="#mc03a15637c" y="135.226667"/>
     <use style="fill:#ff0000;fill-opacity:0.8;stroke:#ff0000;stroke-opacity:0.8;" x="179.55" xlink:href="#mc03a15637c" y="95.692121"/>
     <use style="fill:#ff0000;fill-opacity:0.8;stroke:#ff0000;stroke-opacity:0.8;" x="263.25" xlink:href="#mc03a15637c" y="95.692121"/>
     <use style="fill:#ff0000;fill-opacity:0.8;stroke:#ff0000;stroke-opacity:0.8;" x="305.1" xlink:href="#mc03a15637c" y="176.225455"/>
     <use style="fill:#ff0000;fill-opacity:0.8;stroke:#ff0000;stroke-opacity:0.8;" x="213.03" xlink:href="#mc03a15637c" y="133.762424"/>
     <use style="fill:#ff0000;fill-opacity:0.8;stroke:#ff0000;stroke-opacity:0.8;" x="288.36" xlink:href="#mc03a15637c" y="170.368485"/>
     <use style="fill:#ff0000;fill-opacity:0.8;stroke:#ff0000;stroke-opacity:0.8;" x="254.88" xlink:href="#mc03a15637c" y="141.083636"/>
     <use style="fill:#ff0000;fill-opacity:0.8;stroke:#ff0000;stroke-opacity:0.8;" x="112.59" xlink:href="#mc03a15637c" y="116.191515"/>
     <use style="fill:#ff0000;fill-opacity:0.8;stroke:#ff0000;stroke-opacity:0.8;" x="229.77" xlink:href="#mc03a15637c" y="190.867879"/>
     <use style="fill:#ff0000;fill-opacity:0.8;stroke:#ff0000;stroke-opacity:0.8;" x="246.51" xlink:href="#mc03a15637c" y="130.833939"/>
     <use style="fill:#ff0000;fill-opacity:0.8;stroke:#ff0000;stroke-opacity:0.8;" x="196.29" xlink:href="#mc03a15637c" y="149.869091"/>
     <use style="fill:#ff0000;fill-opacity:0.8;stroke:#ff0000;stroke-opacity:0.8;" x="129.33" xlink:href="#mc03a15637c" y="111.798788"/>
     <use style="fill:#ff0000;fill-opacity:0.8;stroke:#ff0000;stroke-opacity:0.8;" x="137.7" xlink:href="#mc03a15637c" y="148.404848"/>
     <use style="fill:#ff0000;fill-opacity:0.8;stroke:#ff0000;stroke-opacity:0.8;" x="179.55" xlink:href="#mc03a15637c" y="51.764848"/>
     <use style="fill:#ff0000;fill-opacity:0.8;stroke:#ff0000;stroke-opacity:0.8;" x="146.07" xlink:href="#mc03a15637c" y="51.764848"/>
     <use style="fill:#ff0000;fill-opacity:0.8;stroke:#ff0000;stroke-opacity:0.8;" x="204.66" xlink:href="#mc03a15637c" y="180.618182"/>
     <use style="fill:#ff0000;fill-opacity:0.8;stroke:#ff0000;stroke-opacity:0.8;" x="120.96" xlink:href="#mc03a15637c" y="124.97697"/>
     <use style="fill:#ff0000;fill-opacity:0.8;stroke:#ff0000;stroke-opacity:0.8;" x="137.7" xlink:href="#mc03a15637c" y="44.443636"/>
     <use style="fill:#ff0000;fill-opacity:0.8;stroke:#ff0000;stroke-opacity:0.8;" x="171.18" xlink:href="#mc03a15637c" y="171.832727"/>
     <use style="fill:#ff0000;fill-opacity:0.8;stroke:#ff0000;stroke-opacity:0.8;" x="279.99" xlink:href="#mc03a15637c" y="170.368485"/>
     <use style="fill:#ff0000;fill-opacity:0.8;stroke:#ff0000;stroke-opacity:0.8;" x="271.62" xlink:href="#mc03a15637c" y="183.546667"/>
     <use style="fill:#ff0000;fill-opacity:0.8;stroke:#ff0000;stroke-opacity:0.8;" x="112.59" xlink:href="#mc03a15637c" y="158.654545"/>
     <use style="fill:#ff0000;fill-opacity:0.8;stroke:#ff0000;stroke-opacity:0.8;" x="271.62" xlink:href="#mc03a15637c" y="138.155152"/>
     <use style="fill:#ff0000;fill-opacity:0.8;stroke:#ff0000;stroke-opacity:0.8;" x="187.92" xlink:href="#mc03a15637c" y="116.191515"/>
     <use style="fill:#ff0000;fill-opacity:0.8;stroke:#ff0000;stroke-opacity:0.8;" x="196.29" xlink:href="#mc03a15637c" y="205.510303"/>
     <use style="fill:#ff0000;fill-opacity:0.8;stroke:#ff0000;stroke-opacity:0.8;" x="204.66" xlink:href="#mc03a15637c" y="170.368485"/>
     <use style="fill:#ff0000;fill-opacity:0.8;stroke:#ff0000;stroke-opacity:0.8;" x="154.44" xlink:href="#mc03a15637c" y="174.761212"/>
     <use style="fill:#ff0000;fill-opacity:0.8;stroke:#ff0000;stroke-opacity:0.8;" x="120.96" xlink:href="#mc03a15637c" y="98.620606"/>
     <use style="fill:#ff0000;fill-opacity:0.8;stroke:#ff0000;stroke-opacity:0.8;" x="363.69" xlink:href="#mc03a15637c" y="242.116364"/>
     <use style="fill:#ff0000;fill-opacity:0.8;stroke:#ff0000;stroke-opacity:0.8;" x="288.36" xlink:href="#mc03a15637c" y="174.761212"/>
     <use style="fill:#ff0000;fill-opacity:0.8;stroke:#ff0000;stroke-opacity:0.8;" x="213.03" xlink:href="#mc03a15637c" y="168.904242"/>
     <use style="fill:#ff0000;fill-opacity:0.8;stroke:#ff0000;stroke-opacity:0.8;" x="254.88" xlink:href="#mc03a15637c" y="114.727273"/>
     <use style="fill:#ff0000;fill-opacity:0.8;stroke:#ff0000;stroke-opacity:0.8;" x="112.59" xlink:href="#mc03a15637c" y="116.191515"/>
     <use style="fill:#ff0000;fill-opacity:0.8;stroke:#ff0000;stroke-opacity:0.8;" x="146.07" xlink:href="#mc03a15637c" y="94.227879"/>
     <use style="fill:#ff0000;fill-opacity:0.8;stroke:#ff0000;stroke-opacity:0.8;" x="187.92" xlink:href="#mc03a15637c" y="149.869091"/>
     <use style="fill:#ff0000;fill-opacity:0.8;stroke:#ff0000;stroke-opacity:0.8;" x="263.25" xlink:href="#mc03a15637c" y="108.870303"/>
     <use style="fill:#ff0000;fill-opacity:0.8;stroke:#ff0000;stroke-opacity:0.8;" x="187.92" xlink:href="#mc03a15637c" y="157.190303"/>
     <use style="fill:#ff0000;fill-opacity:0.8;stroke:#ff0000;stroke-opacity:0.8;" x="137.7" xlink:href="#mc03a15637c" y="69.335758"/>
     <use style="fill:#ff0000;fill-opacity:0.8;stroke:#ff0000;stroke-opacity:0.8;" x="229.77" xlink:href="#mc03a15637c" y="164.511515"/>
     <use style="fill:#ff0000;fill-opacity:0.8;stroke:#ff0000;stroke-opacity:0.8;" x="238.14" xlink:href="#mc03a15637c" y="100.084848"/>
     <use style="fill:#ff0000;fill-opacity:0.8;stroke:#ff0000;stroke-opacity:0.8;" x="279.99" xlink:href="#mc03a15637c" y="167.44"/>
     <use style="fill:#ff0000;fill-opacity:0.8;stroke:#ff0000;stroke-opacity:0.8;" x="171.18" xlink:href="#mc03a15637c" y="91.299394"/>
     <use style="fill:#ff0000;fill-opacity:0.8;stroke:#ff0000;stroke-opacity:0.8;" x="146.07" xlink:href="#mc03a15637c" y="108.870303"/>
     <use style="fill:#ff0000;fill-opacity:0.8;stroke:#ff0000;stroke-opacity:0.8;" x="204.66" xlink:href="#mc03a15637c" y="85.442424"/>
     <use style="fill:#ff0000;fill-opacity:0.8;stroke:#ff0000;stroke-opacity:0.8;" x="229.77" xlink:href="#mc03a15637c" y="100.084848"/>
     <use style="fill:#ff0000;fill-opacity:0.8;stroke:#ff0000;stroke-opacity:0.8;" x="162.81" xlink:href="#mc03a15637c" y="170.368485"/>
     <use style="fill:#ff0000;fill-opacity:0.8;stroke:#ff0000;stroke-opacity:0.8;" x="171.18" xlink:href="#mc03a15637c" y="98.620606"/>
     <use style="fill:#ff0000;fill-opacity:0.8;stroke:#ff0000;stroke-opacity:0.8;" x="229.77" xlink:href="#mc03a15637c" y="124.97697"/>
     <use style="fill:#ff0000;fill-opacity:0.8;stroke:#ff0000;stroke-opacity:0.8;" x="196.29" xlink:href="#mc03a15637c" y="64.94303"/>
     <use style="fill:#ff0000;fill-opacity:0.8;stroke:#ff0000;stroke-opacity:0.8;" x="137.7" xlink:href="#mc03a15637c" y="64.94303"/>
     <use style="fill:#ff0000;fill-opacity:0.8;stroke:#ff0000;stroke-opacity:0.8;" x="196.29" xlink:href="#mc03a15637c" y="54.693333"/>
     <use style="fill:#ff0000;fill-opacity:0.8;stroke:#ff0000;stroke-opacity:0.8;" x="246.51" xlink:href="#mc03a15637c" y="126.441212"/>
     <use style="fill:#ff0000;fill-opacity:0.8;stroke:#ff0000;stroke-opacity:0.8;" x="213.03" xlink:href="#mc03a15637c" y="111.798788"/>
     <use style="fill:#ff0000;fill-opacity:0.8;stroke:#ff0000;stroke-opacity:0.8;" x="146.07" xlink:href="#mc03a15637c" y="123.512727"/>
     <use style="fill:#ff0000;fill-opacity:0.8;stroke:#ff0000;stroke-opacity:0.8;" x="221.4" xlink:href="#mc03a15637c" y="139.619394"/>
     <use style="fill:#ff0000;fill-opacity:0.8;stroke:#ff0000;stroke-opacity:0.8;" x="187.92" xlink:href="#mc03a15637c" y="173.29697"/>
     <use style="fill:#ff0000;fill-opacity:0.8;stroke:#ff0000;stroke-opacity:0.8;" x="171.18" xlink:href="#mc03a15637c" y="117.655758"/>
     <use style="fill:#ff0000;fill-opacity:0.8;stroke:#ff0000;stroke-opacity:0.8;" x="246.51" xlink:href="#mc03a15637c" y="104.477576"/>
     <use style="fill:#ff0000;fill-opacity:0.8;stroke:#ff0000;stroke-opacity:0.8;" x="288.36" xlink:href="#mc03a15637c" y="141.083636"/>
     <use style="fill:#ff0000;fill-opacity:0.8;stroke:#ff0000;stroke-opacity:0.8;" x="213.03" xlink:href="#mc03a15637c" y="88.370909"/>
     <use style="fill:#ff0000;fill-opacity:0.8;stroke:#ff0000;stroke-opacity:0.8;" x="196.29" xlink:href="#mc03a15637c" y="146.940606"/>
     <use style="fill:#ff0000;fill-opacity:0.8;stroke:#ff0000;stroke-opacity:0.8;" x="179.55" xlink:href="#mc03a15637c" y="126.441212"/>
     <use style="fill:#ff0000;fill-opacity:0.8;stroke:#ff0000;stroke-opacity:0.8;" x="288.36" xlink:href="#mc03a15637c" y="176.225455"/>
     <use style="fill:#ff0000;fill-opacity:0.8;stroke:#ff0000;stroke-opacity:0.8;" x="196.29" xlink:href="#mc03a15637c" y="113.26303"/>
     <use style="fill:#ff0000;fill-opacity:0.8;stroke:#ff0000;stroke-opacity:0.8;" x="229.77" xlink:href="#mc03a15637c" y="176.225455"/>
     <use style="fill:#ff0000;fill-opacity:0.8;stroke:#ff0000;stroke-opacity:0.8;" x="187.92" xlink:href="#mc03a15637c" y="135.226667"/>
     <use style="fill:#ff0000;fill-opacity:0.8;stroke:#ff0000;stroke-opacity:0.8;" x="146.07" xlink:href="#mc03a15637c" y="145.476364"/>
     <use style="fill:#ff0000;fill-opacity:0.8;stroke:#ff0000;stroke-opacity:0.8;" x="246.51" xlink:href="#mc03a15637c" y="155.726061"/>
     <use style="fill:#ff0000;fill-opacity:0.8;stroke:#ff0000;stroke-opacity:0.8;" x="129.33" xlink:href="#mc03a15637c" y="95.692121"/>
     <use style="fill:#ff0000;fill-opacity:0.8;stroke:#ff0000;stroke-opacity:0.8;" x="213.03" xlink:href="#mc03a15637c" y="95.692121"/>
     <use style="fill:#ff0000;fill-opacity:0.8;stroke:#ff0000;stroke-opacity:0.8;" x="213.03" xlink:href="#mc03a15637c" y="130.833939"/>
     <use style="fill:#ff0000;fill-opacity:0.8;stroke:#ff0000;stroke-opacity:0.8;" x="221.4" xlink:href="#mc03a15637c" y="160.118788"/>
     <use style="fill:#ff0000;fill-opacity:0.8;stroke:#ff0000;stroke-opacity:0.8;" x="162.81" xlink:href="#mc03a15637c" y="98.620606"/>
     <use style="fill:#ff0000;fill-opacity:0.8;stroke:#ff0000;stroke-opacity:0.8;" x="146.07" xlink:href="#mc03a15637c" y="110.334545"/>
     <use style="fill:#ff0000;fill-opacity:0.8;stroke:#ff0000;stroke-opacity:0.8;" x="187.92" xlink:href="#mc03a15637c" y="168.904242"/>
     <use style="fill:#ff0000;fill-opacity:0.8;stroke:#ff0000;stroke-opacity:0.8;" x="204.66" xlink:href="#mc03a15637c" y="148.404848"/>
     <use style="fill:#ff0000;fill-opacity:0.8;stroke:#ff0000;stroke-opacity:0.8;" x="254.88" xlink:href="#mc03a15637c" y="179.153939"/>
     <use style="fill:#ff0000;fill-opacity:0.8;stroke:#ff0000;stroke-opacity:0.8;" x="221.4" xlink:href="#mc03a15637c" y="218.688485"/>
     <use style="fill:#ff0000;fill-opacity:0.8;stroke:#ff0000;stroke-opacity:0.8;" x="263.25" xlink:href="#mc03a15637c" y="113.26303"/>
     <use style="fill:#ff0000;fill-opacity:0.8;stroke:#ff0000;stroke-opacity:0.8;" x="120.96" xlink:href="#mc03a15637c" y="130.833939"/>
     <use style="fill:#ff0000;fill-opacity:0.8;stroke:#ff0000;stroke-opacity:0.8;" x="229.77" xlink:href="#mc03a15637c" y="141.083636"/>
     <use style="fill:#ff0000;fill-opacity:0.8;stroke:#ff0000;stroke-opacity:0.8;" x="213.03" xlink:href="#mc03a15637c" y="160.118788"/>
     <use style="fill:#ff0000;fill-opacity:0.8;stroke:#ff0000;stroke-opacity:0.8;" x="104.22" xlink:href="#mc03a15637c" y="107.406061"/>
     <use style="fill:#ff0000;fill-opacity:0.8;stroke:#ff0000;stroke-opacity:0.8;" x="221.4" xlink:href="#mc03a15637c" y="154.261818"/>
     <use style="fill:#ff0000;fill-opacity:0.8;stroke:#ff0000;stroke-opacity:0.8;" x="104.22" xlink:href="#mc03a15637c" y="104.477576"/>
     <use style="fill:#ff0000;fill-opacity:0.8;stroke:#ff0000;stroke-opacity:0.8;" x="137.7" xlink:href="#mc03a15637c" y="104.477576"/>
     <use style="fill:#ff0000;fill-opacity:0.8;stroke:#ff0000;stroke-opacity:0.8;" x="196.29" xlink:href="#mc03a15637c" y="165.975758"/>
     <use style="fill:#ff0000;fill-opacity:0.8;stroke:#ff0000;stroke-opacity:0.8;" x="296.73" xlink:href="#mc03a15637c" y="167.44"/>
     <use style="fill:#ff0000;fill-opacity:0.8;stroke:#ff0000;stroke-opacity:0.8;" x="229.77" xlink:href="#mc03a15637c" y="144.012121"/>
     <use style="fill:#ff0000;fill-opacity:0.8;stroke:#ff0000;stroke-opacity:0.8;" x="229.77" xlink:href="#mc03a15637c" y="145.476364"/>
     <use style="fill:#ff0000;fill-opacity:0.8;stroke:#ff0000;stroke-opacity:0.8;" x="187.92" xlink:href="#mc03a15637c" y="116.191515"/>
     <use style="fill:#ff0000;fill-opacity:0.8;stroke:#ff0000;stroke-opacity:0.8;" x="95.85" xlink:href="#mc03a15637c" y="132.298182"/>
     <use style="fill:#ff0000;fill-opacity:0.8;stroke:#ff0000;stroke-opacity:0.8;" x="171.18" xlink:href="#mc03a15637c" y="167.44"/>
     <use style="fill:#ff0000;fill-opacity:0.8;stroke:#ff0000;stroke-opacity:0.8;" x="196.29" xlink:href="#mc03a15637c" y="227.473939"/>
     <use style="fill:#ff0000;fill-opacity:0.8;stroke:#ff0000;stroke-opacity:0.8;" x="154.44" xlink:href="#mc03a15637c" y="76.65697"/>
     <use style="fill:#ff0000;fill-opacity:0.8;stroke:#ff0000;stroke-opacity:0.8;" x="213.03" xlink:href="#mc03a15637c" y="113.26303"/>
     <use style="fill:#ff0000;fill-opacity:0.8;stroke:#ff0000;stroke-opacity:0.8;" x="196.29" xlink:href="#mc03a15637c" y="144.012121"/>
     <use style="fill:#ff0000;fill-opacity:0.8;stroke:#ff0000;stroke-opacity:0.8;" x="179.55" xlink:href="#mc03a15637c" y="117.655758"/>
     <use style="fill:#ff0000;fill-opacity:0.8;stroke:#ff0000;stroke-opacity:0.8;" x="238.14" xlink:href="#mc03a15637c" y="97.156364"/>
     <use style="fill:#ff0000;fill-opacity:0.8;stroke:#ff0000;stroke-opacity:0.8;" x="154.44" xlink:href="#mc03a15637c" y="73.728485"/>
     <use style="fill:#ff0000;fill-opacity:0.8;stroke:#ff0000;stroke-opacity:0.8;" x="171.18" xlink:href="#mc03a15637c" y="123.512727"/>
     <use style="fill:#ff0000;fill-opacity:0.8;stroke:#ff0000;stroke-opacity:0.8;" x="204.66" xlink:href="#mc03a15637c" y="92.763636"/>
     <use style="fill:#ff0000;fill-opacity:0.8;stroke:#ff0000;stroke-opacity:0.8;" x="154.44" xlink:href="#mc03a15637c" y="119.12"/>
     <use style="fill:#ff0000;fill-opacity:0.8;stroke:#ff0000;stroke-opacity:0.8;" x="129.33" xlink:href="#mc03a15637c" y="79.585455"/>
     <use style="fill:#ff0000;fill-opacity:0.8;stroke:#ff0000;stroke-opacity:0.8;" x="187.92" xlink:href="#mc03a15637c" y="167.44"/>
     <use style="fill:#ff0000;fill-opacity:0.8;stroke:#ff0000;stroke-opacity:0.8;" x="229.77" xlink:href="#mc03a15637c" y="145.476364"/>
     <use style="fill:#ff0000;fill-opacity:0.8;stroke:#ff0000;stroke-opacity:0.8;" x="288.36" xlink:href="#mc03a15637c" y="165.975758"/>
     <use style="fill:#ff0000;fill-opacity:0.8;stroke:#ff0000;stroke-opacity:0.8;" x="187.92" xlink:href="#mc03a15637c" y="98.620606"/>
     <use style="fill:#ff0000;fill-opacity:0.8;stroke:#ff0000;stroke-opacity:0.8;" x="187.92" xlink:href="#mc03a15637c" y="117.655758"/>
     <use style="fill:#ff0000;fill-opacity:0.8;stroke:#ff0000;stroke-opacity:0.8;" x="104.22" xlink:href="#mc03a15637c" y="81.049697"/>
     <use style="fill:#ff0000;fill-opacity:0.8;stroke:#ff0000;stroke-opacity:0.8;" x="129.33" xlink:href="#mc03a15637c" y="95.692121"/>
     <use style="fill:#ff0000;fill-opacity:0.8;stroke:#ff0000;stroke-opacity:0.8;" x="120.96" xlink:href="#mc03a15637c" y="63.478788"/>
     <use style="fill:#ff0000;fill-opacity:0.8;stroke:#ff0000;stroke-opacity:0.8;" x="288.36" xlink:href="#mc03a15637c" y="177.689697"/>
     <use style="fill:#ff0000;fill-opacity:0.8;stroke:#ff0000;stroke-opacity:0.8;" x="162.81" xlink:href="#mc03a15637c" y="160.118788"/>
     <use style="fill:#ff0000;fill-opacity:0.8;stroke:#ff0000;stroke-opacity:0.8;" x="221.4" xlink:href="#mc03a15637c" y="139.619394"/>
     <use style="fill:#ff0000;fill-opacity:0.8;stroke:#ff0000;stroke-opacity:0.8;" x="154.44" xlink:href="#mc03a15637c" y="81.049697"/>
     <use style="fill:#ff0000;fill-opacity:0.8;stroke:#ff0000;stroke-opacity:0.8;" x="221.4" xlink:href="#mc03a15637c" y="113.26303"/>
     <use style="fill:#ff0000;fill-opacity:0.8;stroke:#ff0000;stroke-opacity:0.8;" x="129.33" xlink:href="#mc03a15637c" y="164.511515"/>
     <use style="fill:#ff0000;fill-opacity:0.8;stroke:#ff0000;stroke-opacity:0.8;" x="238.14" xlink:href="#mc03a15637c" y="155.726061"/>
     <use style="fill:#ff0000;fill-opacity:0.8;stroke:#ff0000;stroke-opacity:0.8;" x="388.8" xlink:href="#mc03a15637c" y="215.76"/>
     <use style="fill:#ff0000;fill-opacity:0.8;stroke:#ff0000;stroke-opacity:0.8;" x="204.66" xlink:href="#mc03a15637c" y="173.29697"/>
     <use style="fill:#ff0000;fill-opacity:0.8;stroke:#ff0000;stroke-opacity:0.8;" x="95.85" xlink:href="#mc03a15637c" y="51.764848"/>
     <use style="fill:#ff0000;fill-opacity:0.8;stroke:#ff0000;stroke-opacity:0.8;" x="70.74" xlink:href="#mc03a15637c" y="104.477576"/>
     <use style="fill:#ff0000;fill-opacity:0.8;stroke:#ff0000;stroke-opacity:0.8;" x="196.29" xlink:href="#mc03a15637c" y="173.29697"/>
     <use style="fill:#ff0000;fill-opacity:0.8;stroke:#ff0000;stroke-opacity:0.8;" x="79.11" xlink:href="#mc03a15637c" y="114.727273"/>
     <use style="fill:#ff0000;fill-opacity:0.8;stroke:#ff0000;stroke-opacity:0.8;" x="246.51" xlink:href="#mc03a15637c" y="202.581818"/>
     <use style="fill:#ff0000;fill-opacity:0.8;stroke:#ff0000;stroke-opacity:0.8;" x="162.81" xlink:href="#mc03a15637c" y="129.369697"/>
     <use style="fill:#ff0000;fill-opacity:0.8;stroke:#ff0000;stroke-opacity:0.8;" x="179.55" xlink:href="#mc03a15637c" y="113.26303"/>
     <use style="fill:#ff0000;fill-opacity:0.8;stroke:#ff0000;stroke-opacity:0.8;" x="238.14" xlink:href="#mc03a15637c" y="123.512727"/>
     <use style="fill:#ff0000;fill-opacity:0.8;stroke:#ff0000;stroke-opacity:0.8;" x="179.55" xlink:href="#mc03a15637c" y="117.655758"/>
     <use style="fill:#ff0000;fill-opacity:0.8;stroke:#ff0000;stroke-opacity:0.8;" x="238.14" xlink:href="#mc03a15637c" y="111.798788"/>
     <use style="fill:#ff0000;fill-opacity:0.8;stroke:#ff0000;stroke-opacity:0.8;" x="321.84" xlink:href="#mc03a15637c" y="164.511515"/>
     <use style="fill:#ff0000;fill-opacity:0.8;stroke:#ff0000;stroke-opacity:0.8;" x="221.4" xlink:href="#mc03a15637c" y="108.870303"/>
     <use style="fill:#ff0000;fill-opacity:0.8;stroke:#ff0000;stroke-opacity:0.8;" x="204.66" xlink:href="#mc03a15637c" y="168.904242"/>
     <use style="fill:#ff0000;fill-opacity:0.8;stroke:#ff0000;stroke-opacity:0.8;" x="254.88" xlink:href="#mc03a15637c" y="89.835152"/>
     <use style="fill:#ff0000;fill-opacity:0.8;stroke:#ff0000;stroke-opacity:0.8;" x="146.07" xlink:href="#mc03a15637c" y="192.332121"/>
     <use style="fill:#ff0000;fill-opacity:0.8;stroke:#ff0000;stroke-opacity:0.8;" x="179.55" xlink:href="#mc03a15637c" y="110.334545"/>
     <use style="fill:#ff0000;fill-opacity:0.8;stroke:#ff0000;stroke-opacity:0.8;" x="238.14" xlink:href="#mc03a15637c" y="139.619394"/>
     <use style="fill:#ff0000;fill-opacity:0.8;stroke:#ff0000;stroke-opacity:0.8;" x="238.14" xlink:href="#mc03a15637c" y="136.690909"/>
     <use style="fill:#ff0000;fill-opacity:0.8;stroke:#ff0000;stroke-opacity:0.8;" x="229.77" xlink:href="#mc03a15637c" y="82.513939"/>
     <use style="fill:#ff0000;fill-opacity:0.8;stroke:#ff0000;stroke-opacity:0.8;" x="112.59" xlink:href="#mc03a15637c" y="107.406061"/>
     <use style="fill:#ff0000;fill-opacity:0.8;stroke:#ff0000;stroke-opacity:0.8;" x="162.81" xlink:href="#mc03a15637c" y="130.833939"/>
     <use style="fill:#ff0000;fill-opacity:0.8;stroke:#ff0000;stroke-opacity:0.8;" x="146.07" xlink:href="#mc03a15637c" y="116.191515"/>
     <use style="fill:#ff0000;fill-opacity:0.8;stroke:#ff0000;stroke-opacity:0.8;" x="279.99" xlink:href="#mc03a15637c" y="202.581818"/>
     <use style="fill:#ff0000;fill-opacity:0.8;stroke:#ff0000;stroke-opacity:0.8;" x="162.81" xlink:href="#mc03a15637c" y="152.797576"/>
     <use style="fill:#ff0000;fill-opacity:0.8;stroke:#ff0000;stroke-opacity:0.8;" x="321.84" xlink:href="#mc03a15637c" y="133.762424"/>
     <use style="fill:#ff0000;fill-opacity:0.8;stroke:#ff0000;stroke-opacity:0.8;" x="137.7" xlink:href="#mc03a15637c" y="98.620606"/>
     <use style="fill:#ff0000;fill-opacity:0.8;stroke:#ff0000;stroke-opacity:0.8;" x="279.99" xlink:href="#mc03a15637c" y="124.97697"/>
     <use style="fill:#ff0000;fill-opacity:0.8;stroke:#ff0000;stroke-opacity:0.8;" x="221.4" xlink:href="#mc03a15637c" y="161.58303"/>
     <use style="fill:#ff0000;fill-opacity:0.8;stroke:#ff0000;stroke-opacity:0.8;" x="254.88" xlink:href="#mc03a15637c" y="98.620606"/>
     <use style="fill:#ff0000;fill-opacity:0.8;stroke:#ff0000;stroke-opacity:0.8;" x="179.55" xlink:href="#mc03a15637c" y="151.333333"/>
     <use style="fill:#ff0000;fill-opacity:0.8;stroke:#ff0000;stroke-opacity:0.8;" x="305.1" xlink:href="#mc03a15637c" y="165.975758"/>
     <use style="fill:#ff0000;fill-opacity:0.8;stroke:#ff0000;stroke-opacity:0.8;" x="221.4" xlink:href="#mc03a15637c" y="149.869091"/>
     <use style="fill:#ff0000;fill-opacity:0.8;stroke:#ff0000;stroke-opacity:0.8;" x="271.62" xlink:href="#mc03a15637c" y="107.406061"/>
     <use style="fill:#ff0000;fill-opacity:0.8;stroke:#ff0000;stroke-opacity:0.8;" x="196.29" xlink:href="#mc03a15637c" y="132.298182"/>
     <use style="fill:#ff0000;fill-opacity:0.8;stroke:#ff0000;stroke-opacity:0.8;" x="137.7" xlink:href="#mc03a15637c" y="124.97697"/>
     <use style="fill:#ff0000;fill-opacity:0.8;stroke:#ff0000;stroke-opacity:0.8;" x="263.25" xlink:href="#mc03a15637c" y="116.191515"/>
     <use style="fill:#ff0000;fill-opacity:0.8;stroke:#ff0000;stroke-opacity:0.8;" x="271.62" xlink:href="#mc03a15637c" y="186.475152"/>
     <use style="fill:#ff0000;fill-opacity:0.8;stroke:#ff0000;stroke-opacity:0.8;" x="154.44" xlink:href="#mc03a15637c" y="86.906667"/>
     <use style="fill:#ff0000;fill-opacity:0.8;stroke:#ff0000;stroke-opacity:0.8;" x="238.14" xlink:href="#mc03a15637c" y="123.512727"/>
     <use style="fill:#ff0000;fill-opacity:0.8;stroke:#ff0000;stroke-opacity:0.8;" x="179.55" xlink:href="#mc03a15637c" y="157.190303"/>
     <use style="fill:#ff0000;fill-opacity:0.8;stroke:#ff0000;stroke-opacity:0.8;" x="104.22" xlink:href="#mc03a15637c" y="66.407273"/>
     <use style="fill:#ff0000;fill-opacity:0.8;stroke:#ff0000;stroke-opacity:0.8;" x="229.77" xlink:href="#mc03a15637c" y="82.513939"/>
     <use style="fill:#ff0000;fill-opacity:0.8;stroke:#ff0000;stroke-opacity:0.8;" x="279.99" xlink:href="#mc03a15637c" y="138.155152"/>
    </g>
   </g>
   <g id="PolyCollection_1">
    <path clip-path="url(#p36809b7478)" d="M 54 79.853252 
L 54 103.544104 
L 57.381818 104.284298 
L 60.763636 105.023391 
L 64.145455 105.782943 
L 67.527273 106.504202 
L 70.909091 107.243411 
L 74.290909 107.988524 
L 77.672727 108.724618 
L 81.054545 109.552389 
L 84.436364 110.390435 
L 87.818182 111.228481 
L 91.2 112.012689 
L 94.581818 112.649873 
L 97.963636 113.441155 
L 101.345455 114.26004 
L 104.727273 114.943783 
L 108.109091 115.655055 
L 111.490909 116.476697 
L 114.872727 117.301636 
L 118.254545 118.120179 
L 121.636364 118.885308 
L 125.018182 119.645242 
L 128.4 120.338433 
L 131.781818 121.168619 
L 135.163636 122.001073 
L 138.545455 122.835904 
L 141.927273 123.664522 
L 145.309091 124.364838 
L 148.690909 125.253698 
L 152.072727 126.160193 
L 155.454545 126.994676 
L 158.836364 127.827619 
L 162.218182 128.696862 
L 165.6 129.528493 
L 168.981818 130.4027 
L 172.363636 131.253011 
L 175.745455 132.147158 
L 179.127273 133.031703 
L 182.509091 133.937422 
L 185.890909 134.867702 
L 189.272727 135.805162 
L 192.654545 136.817285 
L 196.036364 137.815115 
L 199.418182 138.688255 
L 202.8 139.552136 
L 206.181818 140.584392 
L 209.563636 141.637303 
L 212.945455 142.689476 
L 216.327273 143.748817 
L 219.709091 144.79598 
L 223.090909 145.828755 
L 226.472727 146.882413 
L 229.854545 147.954754 
L 233.236364 149.008988 
L 236.618182 150.116501 
L 240 151.195826 
L 243.381818 152.299188 
L 246.763636 153.402482 
L 250.145455 154.503329 
L 253.527273 155.608933 
L 256.909091 156.744338 
L 260.290909 157.866782 
L 263.672727 159.085942 
L 267.054545 160.159378 
L 270.436364 161.334822 
L 273.818182 162.509503 
L 277.2 163.68301 
L 280.581818 164.856663 
L 283.963636 166.03112 
L 287.345455 167.137178 
L 290.727273 168.21174 
L 294.109091 169.380816 
L 297.490909 170.591451 
L 300.872727 171.885505 
L 304.254545 173.076623 
L 307.636364 174.278215 
L 311.018182 175.446777 
L 314.4 176.64612 
L 317.781818 177.835763 
L 321.163636 179.061032 
L 324.545455 180.281103 
L 327.927273 181.484639 
L 331.309091 182.622858 
L 334.690909 183.830529 
L 338.072727 185.084249 
L 341.454545 186.33797 
L 344.836364 187.571123 
L 348.218182 188.840133 
L 351.6 190.079282 
L 354.981818 191.333362 
L 358.363636 192.587442 
L 361.745455 193.841522 
L 365.127273 195.095602 
L 368.509091 196.349681 
L 371.890909 197.544085 
L 375.272727 198.68893 
L 378.654545 199.833775 
L 382.036364 201.00677 
L 385.418182 202.266641 
L 388.8 203.526512 
L 388.8 173.083286 
L 388.8 173.083286 
L 385.418182 172.295929 
L 382.036364 171.509879 
L 378.654545 170.722337 
L 375.272727 169.946115 
L 371.890909 169.231094 
L 368.509091 168.517892 
L 365.127273 167.805161 
L 361.745455 167.092431 
L 358.363636 166.379701 
L 354.981818 165.666971 
L 351.6 164.95424 
L 348.218182 164.255744 
L 344.836364 163.559301 
L 341.454545 162.83913 
L 338.072727 162.16255 
L 334.690909 161.387321 
L 331.309091 160.596472 
L 327.927273 159.881253 
L 324.545455 159.197249 
L 321.163636 158.472353 
L 317.781818 157.70719 
L 314.4 156.942026 
L 311.018182 156.176863 
L 307.636364 155.411699 
L 304.254545 154.695857 
L 300.872727 153.984145 
L 297.490909 153.226024 
L 294.109091 152.561962 
L 290.727273 151.841768 
L 287.345455 151.04496 
L 283.963636 150.355287 
L 280.581818 149.5469 
L 277.2 148.916193 
L 273.818182 148.007066 
L 270.436364 147.159991 
L 267.054545 146.313519 
L 263.672727 145.477444 
L 260.290909 144.67944 
L 256.909091 143.911687 
L 253.527273 143.069015 
L 250.145455 142.336686 
L 246.763636 141.592527 
L 243.381818 140.730848 
L 240 139.780464 
L 236.618182 138.964472 
L 233.236364 138.135808 
L 229.854545 137.268464 
L 226.472727 136.404007 
L 223.090909 135.48046 
L 219.709091 134.58352 
L 216.327273 133.708504 
L 212.945455 132.770922 
L 209.563636 131.868053 
L 206.181818 130.884884 
L 202.8 129.947208 
L 199.418182 128.913419 
L 196.036364 127.967926 
L 192.654545 127.020135 
L 189.272727 126.075684 
L 185.890909 125.1306 
L 182.509091 124.167862 
L 179.127273 123.094211 
L 175.745455 121.897947 
L 172.363636 120.842452 
L 168.981818 119.705133 
L 165.6 118.711304 
L 162.218182 117.666761 
L 158.836364 116.49059 
L 155.454545 115.416635 
L 152.072727 114.183211 
L 148.690909 113.050547 
L 145.309091 111.866117 
L 141.927273 110.679725 
L 138.545455 109.568163 
L 135.163636 108.415248 
L 131.781818 107.12858 
L 128.4 105.944195 
L 125.018182 104.793291 
L 121.636364 103.605944 
L 118.254545 102.391067 
L 114.872727 101.205646 
L 111.490909 100.072032 
L 108.109091 98.83767 
L 104.727273 97.699192 
L 101.345455 96.509482 
L 97.963636 95.317846 
L 94.581818 94.127173 
L 91.2 92.9365 
L 87.818182 91.745827 
L 84.436364 90.555154 
L 81.054545 89.364482 
L 77.672727 88.225307 
L 74.290909 87.122672 
L 70.909091 85.928376 
L 67.527273 84.729854 
L 64.145455 83.482498 
L 60.763636 82.255158 
L 57.381818 81.070319 
L 54 79.853252 
z
" style="fill:#ff0000;fill-opacity:0.15;"/>
   </g>
   <g id="matplotlib.axis_1">
    <g id="xtick_1">
     <g id="line2d_1">
      <defs>
       <path d="M 0 0 
L 0 3.5 
" id="m9cc078ae71" style="stroke:#000000;stroke-width:0.8;"/>
      </defs>
      <g>
       <use style="stroke:#000000;stroke-width:0.8;" x="62.37" xlink:href="#m9cc078ae71" y="252"/>
      </g>
     </g>
     <g id="text_1">
      <!-- 5 -->
      <g transform="translate(59.18875 266.598437)scale(0.1 -0.1)">
       <defs>
        <path d="M 10.796875 72.90625 
L 49.515625 72.90625 
L 49.515625 64.59375 
L 19.828125 64.59375 
L 19.828125 46.734375 
Q 21.96875 47.46875 24.109375 47.828125 
Q 26.265625 48.1875 28.421875 48.1875 
Q 40.625 48.1875 47.75 41.5 
Q 54.890625 34.8125 54.890625 23.390625 
Q 54.890625 11.625 47.5625 5.09375 
Q 40.234375 -1.421875 26.90625 -1.421875 
Q 22.3125 -1.421875 17.546875 -0.640625 
Q 12.796875 0.140625 7.71875 1.703125 
L 7.71875 11.625 
Q 12.109375 9.234375 16.796875 8.0625 
Q 21.484375 6.890625 26.703125 6.890625 
Q 35.15625 6.890625 40.078125 11.328125 
Q 45.015625 15.765625 45.015625 23.390625 
Q 45.015625 31 40.078125 35.4375 
Q 35.15625 39.890625 26.703125 39.890625 
Q 22.75 39.890625 18.8125 39.015625 
Q 14.890625 38.140625 10.796875 36.28125 
z
" id="DejaVuSans-53"/>
       </defs>
       <use xlink:href="#DejaVuSans-53"/>
      </g>
     </g>
    </g>
    <g id="xtick_2">
     <g id="line2d_2">
      <g>
       <use style="stroke:#000000;stroke-width:0.8;" x="104.22" xlink:href="#m9cc078ae71" y="252"/>
      </g>
     </g>
     <g id="text_2">
      <!-- 10 -->
      <g transform="translate(97.8575 266.598437)scale(0.1 -0.1)">
       <defs>
        <path d="M 12.40625 8.296875 
L 28.515625 8.296875 
L 28.515625 63.921875 
L 10.984375 60.40625 
L 10.984375 69.390625 
L 28.421875 72.90625 
L 38.28125 72.90625 
L 38.28125 8.296875 
L 54.390625 8.296875 
L 54.390625 0 
L 12.40625 0 
z
" id="DejaVuSans-49"/>
        <path d="M 31.78125 66.40625 
Q 24.171875 66.40625 20.328125 58.90625 
Q 16.5 51.421875 16.5 36.375 
Q 16.5 21.390625 20.328125 13.890625 
Q 24.171875 6.390625 31.78125 6.390625 
Q 39.453125 6.390625 43.28125 13.890625 
Q 47.125 21.390625 47.125 36.375 
Q 47.125 51.421875 43.28125 58.90625 
Q 39.453125 66.40625 31.78125 66.40625 
z
M 31.78125 74.21875 
Q 44.046875 74.21875 50.515625 64.515625 
Q 56.984375 54.828125 56.984375 36.375 
Q 56.984375 17.96875 50.515625 8.265625 
Q 44.046875 -1.421875 31.78125 -1.421875 
Q 19.53125 -1.421875 13.0625 8.265625 
Q 6.59375 17.96875 6.59375 36.375 
Q 6.59375 54.828125 13.0625 64.515625 
Q 19.53125 74.21875 31.78125 74.21875 
z
" id="DejaVuSans-48"/>
       </defs>
       <use xlink:href="#DejaVuSans-49"/>
       <use x="63.623047" xlink:href="#DejaVuSans-48"/>
      </g>
     </g>
    </g>
    <g id="xtick_3">
     <g id="line2d_3">
      <g>
       <use style="stroke:#000000;stroke-width:0.8;" x="146.07" xlink:href="#m9cc078ae71" y="252"/>
      </g>
     </g>
     <g id="text_3">
      <!-- 15 -->
      <g transform="translate(139.7075 266.598437)scale(0.1 -0.1)">
       <use xlink:href="#DejaVuSans-49"/>
       <use x="63.623047" xlink:href="#DejaVuSans-53"/>
      </g>
     </g>
    </g>
    <g id="xtick_4">
     <g id="line2d_4">
      <g>
       <use style="stroke:#000000;stroke-width:0.8;" x="187.92" xlink:href="#m9cc078ae71" y="252"/>
      </g>
     </g>
     <g id="text_4">
      <!-- 20 -->
      <g transform="translate(181.5575 266.598437)scale(0.1 -0.1)">
       <defs>
        <path d="M 19.1875 8.296875 
L 53.609375 8.296875 
L 53.609375 0 
L 7.328125 0 
L 7.328125 8.296875 
Q 12.9375 14.109375 22.625 23.890625 
Q 32.328125 33.6875 34.8125 36.53125 
Q 39.546875 41.84375 41.421875 45.53125 
Q 43.3125 49.21875 43.3125 52.78125 
Q 43.3125 58.59375 39.234375 62.25 
Q 35.15625 65.921875 28.609375 65.921875 
Q 23.96875 65.921875 18.8125 64.3125 
Q 13.671875 62.703125 7.8125 59.421875 
L 7.8125 69.390625 
Q 13.765625 71.78125 18.9375 73 
Q 24.125 74.21875 28.421875 74.21875 
Q 39.75 74.21875 46.484375 68.546875 
Q 53.21875 62.890625 53.21875 53.421875 
Q 53.21875 48.921875 51.53125 44.890625 
Q 49.859375 40.875 45.40625 35.40625 
Q 44.1875 33.984375 37.640625 27.21875 
Q 31.109375 20.453125 19.1875 8.296875 
z
" id="DejaVuSans-50"/>
       </defs>
       <use xlink:href="#DejaVuSans-50"/>
       <use x="63.623047" xlink:href="#DejaVuSans-48"/>
      </g>
     </g>
    </g>
    <g id="xtick_5">
     <g id="line2d_5">
      <g>
       <use style="stroke:#000000;stroke-width:0.8;" x="229.77" xlink:href="#m9cc078ae71" y="252"/>
      </g>
     </g>
     <g id="text_5">
      <!-- 25 -->
      <g transform="translate(223.4075 266.598437)scale(0.1 -0.1)">
       <use xlink:href="#DejaVuSans-50"/>
       <use x="63.623047" xlink:href="#DejaVuSans-53"/>
      </g>
     </g>
    </g>
    <g id="xtick_6">
     <g id="line2d_6">
      <g>
       <use style="stroke:#000000;stroke-width:0.8;" x="271.62" xlink:href="#m9cc078ae71" y="252"/>
      </g>
     </g>
     <g id="text_6">
      <!-- 30 -->
      <g transform="translate(265.2575 266.598437)scale(0.1 -0.1)">
       <defs>
        <path d="M 40.578125 39.3125 
Q 47.65625 37.796875 51.625 33 
Q 55.609375 28.21875 55.609375 21.1875 
Q 55.609375 10.40625 48.1875 4.484375 
Q 40.765625 -1.421875 27.09375 -1.421875 
Q 22.515625 -1.421875 17.65625 -0.515625 
Q 12.796875 0.390625 7.625 2.203125 
L 7.625 11.71875 
Q 11.71875 9.328125 16.59375 8.109375 
Q 21.484375 6.890625 26.8125 6.890625 
Q 36.078125 6.890625 40.9375 10.546875 
Q 45.796875 14.203125 45.796875 21.1875 
Q 45.796875 27.640625 41.28125 31.265625 
Q 36.765625 34.90625 28.71875 34.90625 
L 20.21875 34.90625 
L 20.21875 43.015625 
L 29.109375 43.015625 
Q 36.375 43.015625 40.234375 45.921875 
Q 44.09375 48.828125 44.09375 54.296875 
Q 44.09375 59.90625 40.109375 62.90625 
Q 36.140625 65.921875 28.71875 65.921875 
Q 24.65625 65.921875 20.015625 65.03125 
Q 15.375 64.15625 9.8125 62.3125 
L 9.8125 71.09375 
Q 15.4375 72.65625 20.34375 73.4375 
Q 25.25 74.21875 29.59375 74.21875 
Q 40.828125 74.21875 47.359375 69.109375 
Q 53.90625 64.015625 53.90625 55.328125 
Q 53.90625 49.265625 50.4375 45.09375 
Q 46.96875 40.921875 40.578125 39.3125 
z
" id="DejaVuSans-51"/>
       </defs>
       <use xlink:href="#DejaVuSans-51"/>
       <use x="63.623047" xlink:href="#DejaVuSans-48"/>
      </g>
     </g>
    </g>
    <g id="xtick_7">
     <g id="line2d_7">
      <g>
       <use style="stroke:#000000;stroke-width:0.8;" x="313.47" xlink:href="#m9cc078ae71" y="252"/>
      </g>
     </g>
     <g id="text_7">
      <!-- 35 -->
      <g transform="translate(307.1075 266.598437)scale(0.1 -0.1)">
       <use xlink:href="#DejaVuSans-51"/>
       <use x="63.623047" xlink:href="#DejaVuSans-53"/>
      </g>
     </g>
    </g>
    <g id="xtick_8">
     <g id="line2d_8">
      <g>
       <use style="stroke:#000000;stroke-width:0.8;" x="355.32" xlink:href="#m9cc078ae71" y="252"/>
      </g>
     </g>
     <g id="text_8">
      <!-- 40 -->
      <g transform="translate(348.9575 266.598437)scale(0.1 -0.1)">
       <defs>
        <path d="M 37.796875 64.3125 
L 12.890625 25.390625 
L 37.796875 25.390625 
z
M 35.203125 72.90625 
L 47.609375 72.90625 
L 47.609375 25.390625 
L 58.015625 25.390625 
L 58.015625 17.1875 
L 47.609375 17.1875 
L 47.609375 0 
L 37.796875 0 
L 37.796875 17.1875 
L 4.890625 17.1875 
L 4.890625 26.703125 
z
" id="DejaVuSans-52"/>
       </defs>
       <use xlink:href="#DejaVuSans-52"/>
       <use x="63.623047" xlink:href="#DejaVuSans-48"/>
      </g>
     </g>
    </g>
    <g id="text_9">
     <!-- Autism Quotient Score -->
     <g transform="translate(153.825 281.79625)scale(0.12 -0.12)">
      <defs>
       <path d="M 34.1875 63.1875 
L 20.796875 26.90625 
L 47.609375 26.90625 
z
M 28.609375 72.90625 
L 39.796875 72.90625 
L 67.578125 0 
L 57.328125 0 
L 50.6875 18.703125 
L 17.828125 18.703125 
L 11.1875 0 
L 0.78125 0 
z
" id="DejaVuSans-65"/>
       <path d="M 8.5 21.578125 
L 8.5 54.6875 
L 17.484375 54.6875 
L 17.484375 21.921875 
Q 17.484375 14.15625 20.5 10.265625 
Q 23.53125 6.390625 29.59375 6.390625 
Q 36.859375 6.390625 41.078125 11.03125 
Q 45.3125 15.671875 45.3125 23.6875 
L 45.3125 54.6875 
L 54.296875 54.6875 
L 54.296875 0 
L 45.3125 0 
L 45.3125 8.40625 
Q 42.046875 3.421875 37.71875 1 
Q 33.40625 -1.421875 27.6875 -1.421875 
Q 18.265625 -1.421875 13.375 4.4375 
Q 8.5 10.296875 8.5 21.578125 
z
M 31.109375 56 
z
" id="DejaVuSans-117"/>
       <path d="M 18.3125 70.21875 
L 18.3125 54.6875 
L 36.8125 54.6875 
L 36.8125 47.703125 
L 18.3125 47.703125 
L 18.3125 18.015625 
Q 18.3125 11.328125 20.140625 9.421875 
Q 21.96875 7.515625 27.59375 7.515625 
L 36.8125 7.515625 
L 36.8125 0 
L 27.59375 0 
Q 17.1875 0 13.234375 3.875 
Q 9.28125 7.765625 9.28125 18.015625 
L 9.28125 47.703125 
L 2.6875 47.703125 
L 2.6875 54.6875 
L 9.28125 54.6875 
L 9.28125 70.21875 
z
" id="DejaVuSans-116"/>
       <path d="M 9.421875 54.6875 
L 18.40625 54.6875 
L 18.40625 0 
L 9.421875 0 
z
M 9.421875 75.984375 
L 18.40625 75.984375 
L 18.40625 64.59375 
L 9.421875 64.59375 
z
" id="DejaVuSans-105"/>
       <path d="M 44.28125 53.078125 
L 44.28125 44.578125 
Q 40.484375 46.53125 36.375 47.5 
Q 32.28125 48.484375 27.875 48.484375 
Q 21.1875 48.484375 17.84375 46.4375 
Q 14.5 44.390625 14.5 40.28125 
Q 14.5 37.15625 16.890625 35.375 
Q 19.28125 33.59375 26.515625 31.984375 
L 29.59375 31.296875 
Q 39.15625 29.25 43.1875 25.515625 
Q 47.21875 21.78125 47.21875 15.09375 
Q 47.21875 7.46875 41.1875 3.015625 
Q 35.15625 -1.421875 24.609375 -1.421875 
Q 20.21875 -1.421875 15.453125 -0.5625 
Q 10.6875 0.296875 5.421875 2 
L 5.421875 11.28125 
Q 10.40625 8.6875 15.234375 7.390625 
Q 20.0625 6.109375 24.8125 6.109375 
Q 31.15625 6.109375 34.5625 8.28125 
Q 37.984375 10.453125 37.984375 14.40625 
Q 37.984375 18.0625 35.515625 20.015625 
Q 33.0625 21.96875 24.703125 23.78125 
L 21.578125 24.515625 
Q 13.234375 26.265625 9.515625 29.90625 
Q 5.8125 33.546875 5.8125 39.890625 
Q 5.8125 47.609375 11.28125 51.796875 
Q 16.75 56 26.8125 56 
Q 31.78125 56 36.171875 55.265625 
Q 40.578125 54.546875 44.28125 53.078125 
z
" id="DejaVuSans-115"/>
       <path d="M 52 44.1875 
Q 55.375 50.25 60.0625 53.125 
Q 64.75 56 71.09375 56 
Q 79.640625 56 84.28125 50.015625 
Q 88.921875 44.046875 88.921875 33.015625 
L 88.921875 0 
L 79.890625 0 
L 79.890625 32.71875 
Q 79.890625 40.578125 77.09375 44.375 
Q 74.3125 48.1875 68.609375 48.1875 
Q 61.625 48.1875 57.5625 43.546875 
Q 53.515625 38.921875 53.515625 30.90625 
L 53.515625 0 
L 44.484375 0 
L 44.484375 32.71875 
Q 44.484375 40.625 41.703125 44.40625 
Q 38.921875 48.1875 33.109375 48.1875 
Q 26.21875 48.1875 22.15625 43.53125 
Q 18.109375 38.875 18.109375 30.90625 
L 18.109375 0 
L 9.078125 0 
L 9.078125 54.6875 
L 18.109375 54.6875 
L 18.109375 46.1875 
Q 21.1875 51.21875 25.484375 53.609375 
Q 29.78125 56 35.6875 56 
Q 41.65625 56 45.828125 52.96875 
Q 50 49.953125 52 44.1875 
z
" id="DejaVuSans-109"/>
       <path id="DejaVuSans-32"/>
       <path d="M 39.40625 66.21875 
Q 28.65625 66.21875 22.328125 58.203125 
Q 16.015625 50.203125 16.015625 36.375 
Q 16.015625 22.609375 22.328125 14.59375 
Q 28.65625 6.59375 39.40625 6.59375 
Q 50.140625 6.59375 56.421875 14.59375 
Q 62.703125 22.609375 62.703125 36.375 
Q 62.703125 50.203125 56.421875 58.203125 
Q 50.140625 66.21875 39.40625 66.21875 
z
M 53.21875 1.3125 
L 66.21875 -12.890625 
L 54.296875 -12.890625 
L 43.5 -1.21875 
Q 41.890625 -1.3125 41.03125 -1.359375 
Q 40.1875 -1.421875 39.40625 -1.421875 
Q 24.03125 -1.421875 14.8125 8.859375 
Q 5.609375 19.140625 5.609375 36.375 
Q 5.609375 53.65625 14.8125 63.9375 
Q 24.03125 74.21875 39.40625 74.21875 
Q 54.734375 74.21875 63.90625 63.9375 
Q 73.09375 53.65625 73.09375 36.375 
Q 73.09375 23.6875 67.984375 14.640625 
Q 62.890625 5.609375 53.21875 1.3125 
z
" id="DejaVuSans-81"/>
       <path d="M 30.609375 48.390625 
Q 23.390625 48.390625 19.1875 42.75 
Q 14.984375 37.109375 14.984375 27.296875 
Q 14.984375 17.484375 19.15625 11.84375 
Q 23.34375 6.203125 30.609375 6.203125 
Q 37.796875 6.203125 41.984375 11.859375 
Q 46.1875 17.53125 46.1875 27.296875 
Q 46.1875 37.015625 41.984375 42.703125 
Q 37.796875 48.390625 30.609375 48.390625 
z
M 30.609375 56 
Q 42.328125 56 49.015625 48.375 
Q 55.71875 40.765625 55.71875 27.296875 
Q 55.71875 13.875 49.015625 6.21875 
Q 42.328125 -1.421875 30.609375 -1.421875 
Q 18.84375 -1.421875 12.171875 6.21875 
Q 5.515625 13.875 5.515625 27.296875 
Q 5.515625 40.765625 12.171875 48.375 
Q 18.84375 56 30.609375 56 
z
" id="DejaVuSans-111"/>
       <path d="M 56.203125 29.59375 
L 56.203125 25.203125 
L 14.890625 25.203125 
Q 15.484375 15.921875 20.484375 11.0625 
Q 25.484375 6.203125 34.421875 6.203125 
Q 39.59375 6.203125 44.453125 7.46875 
Q 49.3125 8.734375 54.109375 11.28125 
L 54.109375 2.78125 
Q 49.265625 0.734375 44.1875 -0.34375 
Q 39.109375 -1.421875 33.890625 -1.421875 
Q 20.796875 -1.421875 13.15625 6.1875 
Q 5.515625 13.8125 5.515625 26.8125 
Q 5.515625 40.234375 12.765625 48.109375 
Q 20.015625 56 32.328125 56 
Q 43.359375 56 49.78125 48.890625 
Q 56.203125 41.796875 56.203125 29.59375 
z
M 47.21875 32.234375 
Q 47.125 39.59375 43.09375 43.984375 
Q 39.0625 48.390625 32.421875 48.390625 
Q 24.90625 48.390625 20.390625 44.140625 
Q 15.875 39.890625 15.1875 32.171875 
z
" id="DejaVuSans-101"/>
       <path d="M 54.890625 33.015625 
L 54.890625 0 
L 45.90625 0 
L 45.90625 32.71875 
Q 45.90625 40.484375 42.875 44.328125 
Q 39.84375 48.1875 33.796875 48.1875 
Q 26.515625 48.1875 22.3125 43.546875 
Q 18.109375 38.921875 18.109375 30.90625 
L 18.109375 0 
L 9.078125 0 
L 9.078125 54.6875 
L 18.109375 54.6875 
L 18.109375 46.1875 
Q 21.34375 51.125 25.703125 53.5625 
Q 30.078125 56 35.796875 56 
Q 45.21875 56 50.046875 50.171875 
Q 54.890625 44.34375 54.890625 33.015625 
z
" id="DejaVuSans-110"/>
       <path d="M 53.515625 70.515625 
L 53.515625 60.890625 
Q 47.90625 63.578125 42.921875 64.890625 
Q 37.9375 66.21875 33.296875 66.21875 
Q 25.25 66.21875 20.875 63.09375 
Q 16.5 59.96875 16.5 54.203125 
Q 16.5 49.359375 19.40625 46.890625 
Q 22.3125 44.4375 30.421875 42.921875 
L 36.375 41.703125 
Q 47.40625 39.59375 52.65625 34.296875 
Q 57.90625 29 57.90625 20.125 
Q 57.90625 9.515625 50.796875 4.046875 
Q 43.703125 -1.421875 29.984375 -1.421875 
Q 24.8125 -1.421875 18.96875 -0.25 
Q 13.140625 0.921875 6.890625 3.21875 
L 6.890625 13.375 
Q 12.890625 10.015625 18.65625 8.296875 
Q 24.421875 6.59375 29.984375 6.59375 
Q 38.421875 6.59375 43.015625 9.90625 
Q 47.609375 13.234375 47.609375 19.390625 
Q 47.609375 24.75 44.3125 27.78125 
Q 41.015625 30.8125 33.5 32.328125 
L 27.484375 33.5 
Q 16.453125 35.6875 11.515625 40.375 
Q 6.59375 45.0625 6.59375 53.421875 
Q 6.59375 63.09375 13.40625 68.65625 
Q 20.21875 74.21875 32.171875 74.21875 
Q 37.3125 74.21875 42.625 73.28125 
Q 47.953125 72.359375 53.515625 70.515625 
z
" id="DejaVuSans-83"/>
       <path d="M 48.78125 52.59375 
L 48.78125 44.1875 
Q 44.96875 46.296875 41.140625 47.34375 
Q 37.3125 48.390625 33.40625 48.390625 
Q 24.65625 48.390625 19.8125 42.84375 
Q 14.984375 37.3125 14.984375 27.296875 
Q 14.984375 17.28125 19.8125 11.734375 
Q 24.65625 6.203125 33.40625 6.203125 
Q 37.3125 6.203125 41.140625 7.25 
Q 44.96875 8.296875 48.78125 10.40625 
L 48.78125 2.09375 
Q 45.015625 0.34375 40.984375 -0.53125 
Q 36.96875 -1.421875 32.421875 -1.421875 
Q 20.0625 -1.421875 12.78125 6.34375 
Q 5.515625 14.109375 5.515625 27.296875 
Q 5.515625 40.671875 12.859375 48.328125 
Q 20.21875 56 33.015625 56 
Q 37.15625 56 41.109375 55.140625 
Q 45.0625 54.296875 48.78125 52.59375 
z
" id="DejaVuSans-99"/>
       <path d="M 41.109375 46.296875 
Q 39.59375 47.171875 37.8125 47.578125 
Q 36.03125 48 33.890625 48 
Q 26.265625 48 22.1875 43.046875 
Q 18.109375 38.09375 18.109375 28.8125 
L 18.109375 0 
L 9.078125 0 
L 9.078125 54.6875 
L 18.109375 54.6875 
L 18.109375 46.1875 
Q 20.953125 51.171875 25.484375 53.578125 
Q 30.03125 56 36.53125 56 
Q 37.453125 56 38.578125 55.875 
Q 39.703125 55.765625 41.0625 55.515625 
z
" id="DejaVuSans-114"/>
      </defs>
      <use xlink:href="#DejaVuSans-65"/>
      <use x="68.408203" xlink:href="#DejaVuSans-117"/>
      <use x="131.787109" xlink:href="#DejaVuSans-116"/>
      <use x="170.996094" xlink:href="#DejaVuSans-105"/>
      <use x="198.779297" xlink:href="#DejaVuSans-115"/>
      <use x="250.878906" xlink:href="#DejaVuSans-109"/>
      <use x="348.291016" xlink:href="#DejaVuSans-32"/>
      <use x="380.078125" xlink:href="#DejaVuSans-81"/>
      <use x="458.789062" xlink:href="#DejaVuSans-117"/>
      <use x="522.167969" xlink:href="#DejaVuSans-111"/>
      <use x="583.349609" xlink:href="#DejaVuSans-116"/>
      <use x="622.558594" xlink:href="#DejaVuSans-105"/>
      <use x="650.341797" xlink:href="#DejaVuSans-101"/>
      <use x="711.865234" xlink:href="#DejaVuSans-110"/>
      <use x="775.244141" xlink:href="#DejaVuSans-116"/>
      <use x="814.453125" xlink:href="#DejaVuSans-32"/>
      <use x="846.240234" xlink:href="#DejaVuSans-83"/>
      <use x="909.716797" xlink:href="#DejaVuSans-99"/>
      <use x="964.697266" xlink:href="#DejaVuSans-111"/>
      <use x="1025.878906" xlink:href="#DejaVuSans-114"/>
      <use x="1064.742188" xlink:href="#DejaVuSans-101"/>
     </g>
    </g>
   </g>
   <g id="matplotlib.axis_2">
    <g id="ytick_1">
     <g id="line2d_9">
      <defs>
       <path d="M 0 0 
L -3.5 0 
" id="mab70cb4a0c" style="stroke:#000000;stroke-width:0.8;"/>
      </defs>
      <g>
       <use style="stroke:#000000;stroke-width:0.8;" x="54" xlink:href="#mab70cb4a0c" y="242.116364"/>
      </g>
     </g>
     <g id="text_10">
      <!-- 0.0 -->
      <g transform="translate(31.096875 245.915582)scale(0.1 -0.1)">
       <defs>
        <path d="M 10.6875 12.40625 
L 21 12.40625 
L 21 0 
L 10.6875 0 
z
" id="DejaVuSans-46"/>
       </defs>
       <use xlink:href="#DejaVuSans-48"/>
       <use x="63.623047" xlink:href="#DejaVuSans-46"/>
       <use x="95.410156" xlink:href="#DejaVuSans-48"/>
      </g>
     </g>
    </g>
    <g id="ytick_2">
     <g id="line2d_10">
      <g>
       <use style="stroke:#000000;stroke-width:0.8;" x="54" xlink:href="#mab70cb4a0c" y="212.831515"/>
      </g>
     </g>
     <g id="text_11">
      <!-- 0.2 -->
      <g transform="translate(31.096875 216.630734)scale(0.1 -0.1)">
       <use xlink:href="#DejaVuSans-48"/>
       <use x="63.623047" xlink:href="#DejaVuSans-46"/>
       <use x="95.410156" xlink:href="#DejaVuSans-50"/>
      </g>
     </g>
    </g>
    <g id="ytick_3">
     <g id="line2d_11">
      <g>
       <use style="stroke:#000000;stroke-width:0.8;" x="54" xlink:href="#mab70cb4a0c" y="183.546667"/>
      </g>
     </g>
     <g id="text_12">
      <!-- 0.4 -->
      <g transform="translate(31.096875 187.345885)scale(0.1 -0.1)">
       <use xlink:href="#DejaVuSans-48"/>
       <use x="63.623047" xlink:href="#DejaVuSans-46"/>
       <use x="95.410156" xlink:href="#DejaVuSans-52"/>
      </g>
     </g>
    </g>
    <g id="ytick_4">
     <g id="line2d_12">
      <g>
       <use style="stroke:#000000;stroke-width:0.8;" x="54" xlink:href="#mab70cb4a0c" y="154.261818"/>
      </g>
     </g>
     <g id="text_13">
      <!-- 0.6 -->
      <g transform="translate(31.096875 158.061037)scale(0.1 -0.1)">
       <defs>
        <path d="M 33.015625 40.375 
Q 26.375 40.375 22.484375 35.828125 
Q 18.609375 31.296875 18.609375 23.390625 
Q 18.609375 15.53125 22.484375 10.953125 
Q 26.375 6.390625 33.015625 6.390625 
Q 39.65625 6.390625 43.53125 10.953125 
Q 47.40625 15.53125 47.40625 23.390625 
Q 47.40625 31.296875 43.53125 35.828125 
Q 39.65625 40.375 33.015625 40.375 
z
M 52.59375 71.296875 
L 52.59375 62.3125 
Q 48.875 64.0625 45.09375 64.984375 
Q 41.3125 65.921875 37.59375 65.921875 
Q 27.828125 65.921875 22.671875 59.328125 
Q 17.53125 52.734375 16.796875 39.40625 
Q 19.671875 43.65625 24.015625 45.921875 
Q 28.375 48.1875 33.59375 48.1875 
Q 44.578125 48.1875 50.953125 41.515625 
Q 57.328125 34.859375 57.328125 23.390625 
Q 57.328125 12.15625 50.6875 5.359375 
Q 44.046875 -1.421875 33.015625 -1.421875 
Q 20.359375 -1.421875 13.671875 8.265625 
Q 6.984375 17.96875 6.984375 36.375 
Q 6.984375 53.65625 15.1875 63.9375 
Q 23.390625 74.21875 37.203125 74.21875 
Q 40.921875 74.21875 44.703125 73.484375 
Q 48.484375 72.75 52.59375 71.296875 
z
" id="DejaVuSans-54"/>
       </defs>
       <use xlink:href="#DejaVuSans-48"/>
       <use x="63.623047" xlink:href="#DejaVuSans-46"/>
       <use x="95.410156" xlink:href="#DejaVuSans-54"/>
      </g>
     </g>
    </g>
    <g id="ytick_5">
     <g id="line2d_13">
      <g>
       <use style="stroke:#000000;stroke-width:0.8;" x="54" xlink:href="#mab70cb4a0c" y="124.97697"/>
      </g>
     </g>
     <g id="text_14">
      <!-- 0.8 -->
      <g transform="translate(31.096875 128.776188)scale(0.1 -0.1)">
       <defs>
        <path d="M 31.78125 34.625 
Q 24.75 34.625 20.71875 30.859375 
Q 16.703125 27.09375 16.703125 20.515625 
Q 16.703125 13.921875 20.71875 10.15625 
Q 24.75 6.390625 31.78125 6.390625 
Q 38.8125 6.390625 42.859375 10.171875 
Q 46.921875 13.96875 46.921875 20.515625 
Q 46.921875 27.09375 42.890625 30.859375 
Q 38.875 34.625 31.78125 34.625 
z
M 21.921875 38.8125 
Q 15.578125 40.375 12.03125 44.71875 
Q 8.5 49.078125 8.5 55.328125 
Q 8.5 64.0625 14.71875 69.140625 
Q 20.953125 74.21875 31.78125 74.21875 
Q 42.671875 74.21875 48.875 69.140625 
Q 55.078125 64.0625 55.078125 55.328125 
Q 55.078125 49.078125 51.53125 44.71875 
Q 48 40.375 41.703125 38.8125 
Q 48.828125 37.15625 52.796875 32.3125 
Q 56.78125 27.484375 56.78125 20.515625 
Q 56.78125 9.90625 50.3125 4.234375 
Q 43.84375 -1.421875 31.78125 -1.421875 
Q 19.734375 -1.421875 13.25 4.234375 
Q 6.78125 9.90625 6.78125 20.515625 
Q 6.78125 27.484375 10.78125 32.3125 
Q 14.796875 37.15625 21.921875 38.8125 
z
M 18.3125 54.390625 
Q 18.3125 48.734375 21.84375 45.5625 
Q 25.390625 42.390625 31.78125 42.390625 
Q 38.140625 42.390625 41.71875 45.5625 
Q 45.3125 48.734375 45.3125 54.390625 
Q 45.3125 60.0625 41.71875 63.234375 
Q 38.140625 66.40625 31.78125 66.40625 
Q 25.390625 66.40625 21.84375 63.234375 
Q 18.3125 60.0625 18.3125 54.390625 
z
" id="DejaVuSans-56"/>
       </defs>
       <use xlink:href="#DejaVuSans-48"/>
       <use x="63.623047" xlink:href="#DejaVuSans-46"/>
       <use x="95.410156" xlink:href="#DejaVuSans-56"/>
      </g>
     </g>
    </g>
    <g id="ytick_6">
     <g id="line2d_14">
      <g>
       <use style="stroke:#000000;stroke-width:0.8;" x="54" xlink:href="#mab70cb4a0c" y="95.692121"/>
      </g>
     </g>
     <g id="text_15">
      <!-- 1.0 -->
      <g transform="translate(31.096875 99.49134)scale(0.1 -0.1)">
       <use xlink:href="#DejaVuSans-49"/>
       <use x="63.623047" xlink:href="#DejaVuSans-46"/>
       <use x="95.410156" xlink:href="#DejaVuSans-48"/>
      </g>
     </g>
    </g>
    <g id="ytick_7">
     <g id="line2d_15">
      <g>
       <use style="stroke:#000000;stroke-width:0.8;" x="54" xlink:href="#mab70cb4a0c" y="66.407273"/>
      </g>
     </g>
     <g id="text_16">
      <!-- 1.2 -->
      <g transform="translate(31.096875 70.206491)scale(0.1 -0.1)">
       <use xlink:href="#DejaVuSans-49"/>
       <use x="63.623047" xlink:href="#DejaVuSans-46"/>
       <use x="95.410156" xlink:href="#DejaVuSans-50"/>
      </g>
     </g>
    </g>
    <g id="ytick_8">
     <g id="line2d_16">
      <g>
       <use style="stroke:#000000;stroke-width:0.8;" x="54" xlink:href="#mab70cb4a0c" y="37.122424"/>
      </g>
     </g>
     <g id="text_17">
      <!-- 1.4 -->
      <g transform="translate(31.096875 40.921643)scale(0.1 -0.1)">
       <use xlink:href="#DejaVuSans-49"/>
       <use x="63.623047" xlink:href="#DejaVuSans-46"/>
       <use x="95.410156" xlink:href="#DejaVuSans-52"/>
      </g>
     </g>
    </g>
    <g id="text_18">
     <!-- Total Spent on Social Experiences -->
     <g transform="translate(24.60125 244.235625)rotate(-90)scale(0.12 -0.12)">
      <defs>
       <path d="M -0.296875 72.90625 
L 61.375 72.90625 
L 61.375 64.59375 
L 35.5 64.59375 
L 35.5 0 
L 25.59375 0 
L 25.59375 64.59375 
L -0.296875 64.59375 
z
" id="DejaVuSans-84"/>
       <path d="M 34.28125 27.484375 
Q 23.390625 27.484375 19.1875 25 
Q 14.984375 22.515625 14.984375 16.5 
Q 14.984375 11.71875 18.140625 8.90625 
Q 21.296875 6.109375 26.703125 6.109375 
Q 34.1875 6.109375 38.703125 11.40625 
Q 43.21875 16.703125 43.21875 25.484375 
L 43.21875 27.484375 
z
M 52.203125 31.203125 
L 52.203125 0 
L 43.21875 0 
L 43.21875 8.296875 
Q 40.140625 3.328125 35.546875 0.953125 
Q 30.953125 -1.421875 24.3125 -1.421875 
Q 15.921875 -1.421875 10.953125 3.296875 
Q 6 8.015625 6 15.921875 
Q 6 25.140625 12.171875 29.828125 
Q 18.359375 34.515625 30.609375 34.515625 
L 43.21875 34.515625 
L 43.21875 35.40625 
Q 43.21875 41.609375 39.140625 45 
Q 35.0625 48.390625 27.6875 48.390625 
Q 23 48.390625 18.546875 47.265625 
Q 14.109375 46.140625 10.015625 43.890625 
L 10.015625 52.203125 
Q 14.9375 54.109375 19.578125 55.046875 
Q 24.21875 56 28.609375 56 
Q 40.484375 56 46.34375 49.84375 
Q 52.203125 43.703125 52.203125 31.203125 
z
" id="DejaVuSans-97"/>
       <path d="M 9.421875 75.984375 
L 18.40625 75.984375 
L 18.40625 0 
L 9.421875 0 
z
" id="DejaVuSans-108"/>
       <path d="M 18.109375 8.203125 
L 18.109375 -20.796875 
L 9.078125 -20.796875 
L 9.078125 54.6875 
L 18.109375 54.6875 
L 18.109375 46.390625 
Q 20.953125 51.265625 25.265625 53.625 
Q 29.59375 56 35.59375 56 
Q 45.5625 56 51.78125 48.09375 
Q 58.015625 40.1875 58.015625 27.296875 
Q 58.015625 14.40625 51.78125 6.484375 
Q 45.5625 -1.421875 35.59375 -1.421875 
Q 29.59375 -1.421875 25.265625 0.953125 
Q 20.953125 3.328125 18.109375 8.203125 
z
M 48.6875 27.296875 
Q 48.6875 37.203125 44.609375 42.84375 
Q 40.53125 48.484375 33.40625 48.484375 
Q 26.265625 48.484375 22.1875 42.84375 
Q 18.109375 37.203125 18.109375 27.296875 
Q 18.109375 17.390625 22.1875 11.75 
Q 26.265625 6.109375 33.40625 6.109375 
Q 40.53125 6.109375 44.609375 11.75 
Q 48.6875 17.390625 48.6875 27.296875 
z
" id="DejaVuSans-112"/>
       <path d="M 9.8125 72.90625 
L 55.90625 72.90625 
L 55.90625 64.59375 
L 19.671875 64.59375 
L 19.671875 43.015625 
L 54.390625 43.015625 
L 54.390625 34.71875 
L 19.671875 34.71875 
L 19.671875 8.296875 
L 56.78125 8.296875 
L 56.78125 0 
L 9.8125 0 
z
" id="DejaVuSans-69"/>
       <path d="M 54.890625 54.6875 
L 35.109375 28.078125 
L 55.90625 0 
L 45.3125 0 
L 29.390625 21.484375 
L 13.484375 0 
L 2.875 0 
L 24.125 28.609375 
L 4.6875 54.6875 
L 15.28125 54.6875 
L 29.78125 35.203125 
L 44.28125 54.6875 
z
" id="DejaVuSans-120"/>
      </defs>
      <use xlink:href="#DejaVuSans-84"/>
      <use x="44.083984" xlink:href="#DejaVuSans-111"/>
      <use x="105.265625" xlink:href="#DejaVuSans-116"/>
      <use x="144.474609" xlink:href="#DejaVuSans-97"/>
      <use x="205.753906" xlink:href="#DejaVuSans-108"/>
      <use x="233.537109" xlink:href="#DejaVuSans-32"/>
      <use x="265.324219" xlink:href="#DejaVuSans-83"/>
      <use x="328.800781" xlink:href="#DejaVuSans-112"/>
      <use x="392.277344" xlink:href="#DejaVuSans-101"/>
      <use x="453.800781" xlink:href="#DejaVuSans-110"/>
      <use x="517.179688" xlink:href="#DejaVuSans-116"/>
      <use x="556.388672" xlink:href="#DejaVuSans-32"/>
      <use x="588.175781" xlink:href="#DejaVuSans-111"/>
      <use x="649.357422" xlink:href="#DejaVuSans-110"/>
      <use x="712.736328" xlink:href="#DejaVuSans-32"/>
      <use x="744.523438" xlink:href="#DejaVuSans-83"/>
      <use x="808" xlink:href="#DejaVuSans-111"/>
      <use x="869.181641" xlink:href="#DejaVuSans-99"/>
      <use x="924.162109" xlink:href="#DejaVuSans-105"/>
      <use x="951.945312" xlink:href="#DejaVuSans-97"/>
      <use x="1013.224609" xlink:href="#DejaVuSans-108"/>
      <use x="1041.007812" xlink:href="#DejaVuSans-32"/>
      <use x="1072.794922" xlink:href="#DejaVuSans-69"/>
      <use x="1135.978516" xlink:href="#DejaVuSans-120"/>
      <use x="1195.158203" xlink:href="#DejaVuSans-112"/>
      <use x="1258.634766" xlink:href="#DejaVuSans-101"/>
      <use x="1320.158203" xlink:href="#DejaVuSans-114"/>
      <use x="1361.271484" xlink:href="#DejaVuSans-105"/>
      <use x="1389.054688" xlink:href="#DejaVuSans-101"/>
      <use x="1450.578125" xlink:href="#DejaVuSans-110"/>
      <use x="1513.957031" xlink:href="#DejaVuSans-99"/>
      <use x="1568.9375" xlink:href="#DejaVuSans-101"/>
      <use x="1630.460938" xlink:href="#DejaVuSans-115"/>
     </g>
    </g>
   </g>
   <g id="line2d_17">
    <path clip-path="url(#p36809b7478)" d="M 54 91.303404 
L 57.381818 92.290422 
L 60.763636 93.27744 
L 64.145455 94.264458 
L 67.527273 95.251476 
L 70.909091 96.238494 
L 74.290909 97.225511 
L 77.672727 98.212529 
L 81.054545 99.199547 
L 84.436364 100.186565 
L 87.818182 101.173583 
L 91.2 102.160601 
L 94.581818 103.147619 
L 97.963636 104.134637 
L 101.345455 105.121655 
L 104.727273 106.108672 
L 108.109091 107.09569 
L 111.490909 108.082708 
L 114.872727 109.069726 
L 118.254545 110.056744 
L 121.636364 111.043762 
L 125.018182 112.03078 
L 128.4 113.017798 
L 131.781818 114.004815 
L 135.163636 114.991833 
L 138.545455 115.978851 
L 141.927273 116.965869 
L 145.309091 117.952887 
L 148.690909 118.939905 
L 152.072727 119.926923 
L 155.454545 120.913941 
L 158.836364 121.900959 
L 162.218182 122.887976 
L 165.6 123.874994 
L 168.981818 124.862012 
L 172.363636 125.84903 
L 175.745455 126.836048 
L 179.127273 127.823066 
L 182.509091 128.810084 
L 185.890909 129.797102 
L 189.272727 130.78412 
L 192.654545 131.771137 
L 196.036364 132.758155 
L 199.418182 133.745173 
L 202.8 134.732191 
L 206.181818 135.719209 
L 209.563636 136.706227 
L 212.945455 137.693245 
L 216.327273 138.680263 
L 219.709091 139.66728 
L 223.090909 140.654298 
L 226.472727 141.641316 
L 229.854545 142.628334 
L 233.236364 143.615352 
L 236.618182 144.60237 
L 240 145.589388 
L 243.381818 146.576406 
L 246.763636 147.563424 
L 250.145455 148.550441 
L 253.527273 149.537459 
L 256.909091 150.524477 
L 260.290909 151.511495 
L 263.672727 152.498513 
L 267.054545 153.485531 
L 270.436364 154.472549 
L 273.818182 155.459567 
L 277.2 156.446584 
L 280.581818 157.433602 
L 283.963636 158.42062 
L 287.345455 159.407638 
L 290.727273 160.394656 
L 294.109091 161.381674 
L 297.490909 162.368692 
L 300.872727 163.35571 
L 304.254545 164.342728 
L 307.636364 165.329745 
L 311.018182 166.316763 
L 314.4 167.303781 
L 317.781818 168.290799 
L 321.163636 169.277817 
L 324.545455 170.264835 
L 327.927273 171.251853 
L 331.309091 172.238871 
L 334.690909 173.225889 
L 338.072727 174.212906 
L 341.454545 175.199924 
L 344.836364 176.186942 
L 348.218182 177.17396 
L 351.6 178.160978 
L 354.981818 179.147996 
L 358.363636 180.135014 
L 361.745455 181.122032 
L 365.127273 182.109049 
L 368.509091 183.096067 
L 371.890909 184.083085 
L 375.272727 185.070103 
L 378.654545 186.057121 
L 382.036364 187.044139 
L 385.418182 188.031157 
L 388.8 189.018175 
" style="fill:none;stroke:#ff0000;stroke-linecap:square;stroke-width:2.25;"/>
   </g>
   <g id="patch_3">
    <path d="M 54 252 
L 54 34.56 
" style="fill:none;stroke:#000000;stroke-linecap:square;stroke-linejoin:miter;stroke-width:0.8;"/>
   </g>
   <g id="patch_4">
    <path d="M 388.8 252 
L 388.8 34.56 
" style="fill:none;stroke:#000000;stroke-linecap:square;stroke-linejoin:miter;stroke-width:0.8;"/>
   </g>
   <g id="patch_5">
    <path d="M 54 252 
L 388.8 252 
" style="fill:none;stroke:#000000;stroke-linecap:square;stroke-linejoin:miter;stroke-width:0.8;"/>
   </g>
   <g id="patch_6">
    <path d="M 54 34.56 
L 388.8 34.56 
" style="fill:none;stroke:#000000;stroke-linecap:square;stroke-linejoin:miter;stroke-width:0.8;"/>
   </g>
  </g>
 </g>
 <defs>
  <clipPath id="p36809b7478">
   <rect height="217.44" width="334.8" x="54" y="34.56"/>
  </clipPath>
 </defs>
</svg>
