<?xml version="1.0" encoding="utf-8" standalone="no"?>
<!DOCTYPE svg PUBLIC "-//W3C//DTD SVG 1.1//EN"
  "http://www.w3.org/Graphics/SVG/1.1/DTD/svg11.dtd">
<!-- Created with matplotlib (https://matplotlib.org/) -->
<svg height="288pt" version="1.1" viewBox="0 0 432 288" width="432pt" xmlns="http://www.w3.org/2000/svg" xmlns:xlink="http://www.w3.org/1999/xlink">
 <metadata>
  <rdf:RDF xmlns:cc="http://creativecommons.org/ns#" xmlns:dc="http://purl.org/dc/elements/1.1/" xmlns:rdf="http://www.w3.org/1999/02/22-rdf-syntax-ns#">
   <cc:Work>
    <dc:type rdf:resource="http://purl.org/dc/dcmitype/StillImage"/>
    <dc:date>2021-09-27T11:51:05.137141</dc:date>
    <dc:format>image/svg+xml</dc:format>
    <dc:creator>
     <cc:Agent>
      <dc:title>Matplotlib v3.3.2, https://matplotlib.org/</dc:title>
     </cc:Agent>
    </dc:creator>
   </cc:Work>
  </rdf:RDF>
 </metadata>
 <defs>
  <style type="text/css">*{stroke-linecap:butt;stroke-linejoin:round;}</style>
 </defs>
 <g id="figure_1">
  <g id="patch_1">
   <path d="M 0 288 
L 432 288 
L 432 0 
L 0 0 
z
" style="fill:none;"/>
  </g>
  <g id="axes_1">
   <g id="patch_2">
    <path d="M 54 252 
L 388.8 252 
L 388.8 34.56 
L 54 34.56 
z
" style="fill:#ffffff;"/>
   </g>
   <g id="PathCollection_1">
    <defs>
     <path d="M 0 3 
C 0.795609 3 1.55874 2.683901 2.12132 2.12132 
C 2.683901 1.55874 3 0.795609 3 0 
C 3 -0.795609 2.683901 -1.55874 2.12132 -2.12132 
C 1.55874 -2.683901 0.795609 -3 0 -3 
C -0.795609 -3 -1.55874 -2.683901 -2.12132 -2.12132 
C -2.683901 -1.55874 -3 -0.795609 -3 0 
C -3 0.795609 -2.683901 1.55874 -2.12132 2.12132 
C -1.55874 2.683901 -0.795609 3 0 3 
z
" id="m4610fb4032" style="stroke:#ffa500;stroke-opacity:0.8;"/>
    </defs>
    <g clip-path="url(#p4650ef553f)">
     <use style="fill:#ffa500;fill-opacity:0.8;stroke:#ffa500;stroke-opacity:0.8;" x="247.153846" xlink:href="#m4610fb4032" y="165.948891"/>
     <use style="fill:#ffa500;fill-opacity:0.8;stroke:#ffa500;stroke-opacity:0.8;" x="169.892308" xlink:href="#m4610fb4032" y="189.524537"/>
     <use style="fill:#ffa500;fill-opacity:0.8;stroke:#ffa500;stroke-opacity:0.8;" x="118.384615" xlink:href="#m4610fb4032" y="225.794762"/>
     <use style="fill:#ffa500;fill-opacity:0.8;stroke:#ffa500;stroke-opacity:0.8;" x="105.507692" xlink:href="#m4610fb4032" y="189.524537"/>
     <use style="fill:#ffa500;fill-opacity:0.8;stroke:#ffa500;stroke-opacity:0.8;" x="247.153846" xlink:href="#m4610fb4032" y="155.067823"/>
     <use style="fill:#ffa500;fill-opacity:0.8;stroke:#ffa500;stroke-opacity:0.8;" x="337.292308" xlink:href="#m4610fb4032" y="102.475997"/>
     <use style="fill:#ffa500;fill-opacity:0.8;stroke:#ffa500;stroke-opacity:0.8;" x="337.292308" xlink:href="#m4610fb4032" y="200.405605"/>
     <use style="fill:#ffa500;fill-opacity:0.8;stroke:#ffa500;stroke-opacity:0.8;" x="208.523077" xlink:href="#m4610fb4032" y="84.340884"/>
     <use style="fill:#ffa500;fill-opacity:0.8;stroke:#ffa500;stroke-opacity:0.8;" x="285.784615" xlink:href="#m4610fb4032" y="171.389425"/>
     <use style="fill:#ffa500;fill-opacity:0.8;stroke:#ffa500;stroke-opacity:0.8;" x="144.138462" xlink:href="#m4610fb4032" y="147.813778"/>
     <use style="fill:#ffa500;fill-opacity:0.8;stroke:#ffa500;stroke-opacity:0.8;" x="298.661538" xlink:href="#m4610fb4032" y="120.611109"/>
     <use style="fill:#ffa500;fill-opacity:0.8;stroke:#ffa500;stroke-opacity:0.8;" x="182.769231" xlink:href="#m4610fb4032" y="144.186756"/>
     <use style="fill:#ffa500;fill-opacity:0.8;stroke:#ffa500;stroke-opacity:0.8;" x="260.030769" xlink:href="#m4610fb4032" y="211.286672"/>
     <use style="fill:#ffa500;fill-opacity:0.8;stroke:#ffa500;stroke-opacity:0.8;" x="234.276923" xlink:href="#m4610fb4032" y="75.273328"/>
     <use style="fill:#ffa500;fill-opacity:0.8;stroke:#ffa500;stroke-opacity:0.8;" x="221.4" xlink:href="#m4610fb4032" y="142.373244"/>
     <use style="fill:#ffa500;fill-opacity:0.8;stroke:#ffa500;stroke-opacity:0.8;" x="234.276923" xlink:href="#m4610fb4032" y="149.627289"/>
     <use style="fill:#ffa500;fill-opacity:0.8;stroke:#ffa500;stroke-opacity:0.8;" x="221.4" xlink:href="#m4610fb4032" y="169.575913"/>
     <use style="fill:#ffa500;fill-opacity:0.8;stroke:#ffa500;stroke-opacity:0.8;" x="298.661538" xlink:href="#m4610fb4032" y="151.440801"/>
     <use style="fill:#ffa500;fill-opacity:0.8;stroke:#ffa500;stroke-opacity:0.8;" x="260.030769" xlink:href="#m4610fb4032" y="187.711026"/>
     <use style="fill:#ffa500;fill-opacity:0.8;stroke:#ffa500;stroke-opacity:0.8;" x="298.661538" xlink:href="#m4610fb4032" y="64.39226"/>
     <use style="fill:#ffa500;fill-opacity:0.8;stroke:#ffa500;stroke-opacity:0.8;" x="208.523077" xlink:href="#m4610fb4032" y="156.881334"/>
     <use style="fill:#ffa500;fill-opacity:0.8;stroke:#ffa500;stroke-opacity:0.8;" x="388.8" xlink:href="#m4610fb4032" y="242.116364"/>
     <use style="fill:#ffa500;fill-opacity:0.8;stroke:#ffa500;stroke-opacity:0.8;" x="337.292308" xlink:href="#m4610fb4032" y="60.765238"/>
     <use style="fill:#ffa500;fill-opacity:0.8;stroke:#ffa500;stroke-opacity:0.8;" x="221.4" xlink:href="#m4610fb4032" y="138.746222"/>
     <use style="fill:#ffa500;fill-opacity:0.8;stroke:#ffa500;stroke-opacity:0.8;" x="131.261538" xlink:href="#m4610fb4032" y="227.608274"/>
     <use style="fill:#ffa500;fill-opacity:0.8;stroke:#ffa500;stroke-opacity:0.8;" x="234.276923" xlink:href="#m4610fb4032" y="158.694846"/>
     <use style="fill:#ffa500;fill-opacity:0.8;stroke:#ffa500;stroke-opacity:0.8;" x="157.015385" xlink:href="#m4610fb4032" y="89.781418"/>
     <use style="fill:#ffa500;fill-opacity:0.8;stroke:#ffa500;stroke-opacity:0.8;" x="54" xlink:href="#m4610fb4032" y="158.694846"/>
     <use style="fill:#ffa500;fill-opacity:0.8;stroke:#ffa500;stroke-opacity:0.8;" x="221.4" xlink:href="#m4610fb4032" y="120.611109"/>
     <use style="fill:#ffa500;fill-opacity:0.8;stroke:#ffa500;stroke-opacity:0.8;" x="169.892308" xlink:href="#m4610fb4032" y="55.324704"/>
     <use style="fill:#ffa500;fill-opacity:0.8;stroke:#ffa500;stroke-opacity:0.8;" x="298.661538" xlink:href="#m4610fb4032" y="115.170575"/>
     <use style="fill:#ffa500;fill-opacity:0.8;stroke:#ffa500;stroke-opacity:0.8;" x="195.646154" xlink:href="#m4610fb4032" y="106.103019"/>
     <use style="fill:#ffa500;fill-opacity:0.8;stroke:#ffa500;stroke-opacity:0.8;" x="260.030769" xlink:href="#m4610fb4032" y="77.086839"/>
     <use style="fill:#ffa500;fill-opacity:0.8;stroke:#ffa500;stroke-opacity:0.8;" x="234.276923" xlink:href="#m4610fb4032" y="86.154395"/>
     <use style="fill:#ffa500;fill-opacity:0.8;stroke:#ffa500;stroke-opacity:0.8;" x="221.4" xlink:href="#m4610fb4032" y="207.65965"/>
     <use style="fill:#ffa500;fill-opacity:0.8;stroke:#ffa500;stroke-opacity:0.8;" x="92.630769" xlink:href="#m4610fb4032" y="120.611109"/>
     <use style="fill:#ffa500;fill-opacity:0.8;stroke:#ffa500;stroke-opacity:0.8;" x="311.538462" xlink:href="#m4610fb4032" y="129.678666"/>
     <use style="fill:#ffa500;fill-opacity:0.8;stroke:#ffa500;stroke-opacity:0.8;" x="260.030769" xlink:href="#m4610fb4032" y="160.508357"/>
     <use style="fill:#ffa500;fill-opacity:0.8;stroke:#ffa500;stroke-opacity:0.8;" x="92.630769" xlink:href="#m4610fb4032" y="176.829958"/>
     <use style="fill:#ffa500;fill-opacity:0.8;stroke:#ffa500;stroke-opacity:0.8;" x="195.646154" xlink:href="#m4610fb4032" y="184.084003"/>
     <use style="fill:#ffa500;fill-opacity:0.8;stroke:#ffa500;stroke-opacity:0.8;" x="169.892308" xlink:href="#m4610fb4032" y="116.984087"/>
     <use style="fill:#ffa500;fill-opacity:0.8;stroke:#ffa500;stroke-opacity:0.8;" x="144.138462" xlink:href="#m4610fb4032" y="104.289508"/>
     <use style="fill:#ffa500;fill-opacity:0.8;stroke:#ffa500;stroke-opacity:0.8;" x="311.538462" xlink:href="#m4610fb4032" y="135.119199"/>
     <use style="fill:#ffa500;fill-opacity:0.8;stroke:#ffa500;stroke-opacity:0.8;" x="208.523077" xlink:href="#m4610fb4032" y="178.64347"/>
     <use style="fill:#ffa500;fill-opacity:0.8;stroke:#ffa500;stroke-opacity:0.8;" x="157.015385" xlink:href="#m4610fb4032" y="213.100183"/>
     <use style="fill:#ffa500;fill-opacity:0.8;stroke:#ffa500;stroke-opacity:0.8;" x="195.646154" xlink:href="#m4610fb4032" y="107.91653"/>
     <use style="fill:#ffa500;fill-opacity:0.8;stroke:#ffa500;stroke-opacity:0.8;" x="221.4" xlink:href="#m4610fb4032" y="115.170575"/>
     <use style="fill:#ffa500;fill-opacity:0.8;stroke:#ffa500;stroke-opacity:0.8;" x="221.4" xlink:href="#m4610fb4032" y="80.713862"/>
     <use style="fill:#ffa500;fill-opacity:0.8;stroke:#ffa500;stroke-opacity:0.8;" x="311.538462" xlink:href="#m4610fb4032" y="205.846138"/>
     <use style="fill:#ffa500;fill-opacity:0.8;stroke:#ffa500;stroke-opacity:0.8;" x="221.4" xlink:href="#m4610fb4032" y="104.289508"/>
     <use style="fill:#ffa500;fill-opacity:0.8;stroke:#ffa500;stroke-opacity:0.8;" x="285.784615" xlink:href="#m4610fb4032" y="187.711026"/>
     <use style="fill:#ffa500;fill-opacity:0.8;stroke:#ffa500;stroke-opacity:0.8;" x="221.4" xlink:href="#m4610fb4032" y="140.559733"/>
     <use style="fill:#ffa500;fill-opacity:0.8;stroke:#ffa500;stroke-opacity:0.8;" x="221.4" xlink:href="#m4610fb4032" y="153.254312"/>
     <use style="fill:#ffa500;fill-opacity:0.8;stroke:#ffa500;stroke-opacity:0.8;" x="247.153846" xlink:href="#m4610fb4032" y="82.527373"/>
     <use style="fill:#ffa500;fill-opacity:0.8;stroke:#ffa500;stroke-opacity:0.8;" x="79.753846" xlink:href="#m4610fb4032" y="104.289508"/>
     <use style="fill:#ffa500;fill-opacity:0.8;stroke:#ffa500;stroke-opacity:0.8;" x="208.523077" xlink:href="#m4610fb4032" y="156.881334"/>
     <use style="fill:#ffa500;fill-opacity:0.8;stroke:#ffa500;stroke-opacity:0.8;" x="144.138462" xlink:href="#m4610fb4032" y="73.459817"/>
     <use style="fill:#ffa500;fill-opacity:0.8;stroke:#ffa500;stroke-opacity:0.8;" x="208.523077" xlink:href="#m4610fb4032" y="146.000267"/>
     <use style="fill:#ffa500;fill-opacity:0.8;stroke:#ffa500;stroke-opacity:0.8;" x="247.153846" xlink:href="#m4610fb4032" y="44.443636"/>
     <use style="fill:#ffa500;fill-opacity:0.8;stroke:#ffa500;stroke-opacity:0.8;" x="131.261538" xlink:href="#m4610fb4032" y="127.865154"/>
     <use style="fill:#ffa500;fill-opacity:0.8;stroke:#ffa500;stroke-opacity:0.8;" x="285.784615" xlink:href="#m4610fb4032" y="140.559733"/>
     <use style="fill:#ffa500;fill-opacity:0.8;stroke:#ffa500;stroke-opacity:0.8;" x="208.523077" xlink:href="#m4610fb4032" y="171.389425"/>
     <use style="fill:#ffa500;fill-opacity:0.8;stroke:#ffa500;stroke-opacity:0.8;" x="169.892308" xlink:href="#m4610fb4032" y="111.543553"/>
     <use style="fill:#ffa500;fill-opacity:0.8;stroke:#ffa500;stroke-opacity:0.8;" x="324.415385" xlink:href="#m4610fb4032" y="95.221952"/>
     <use style="fill:#ffa500;fill-opacity:0.8;stroke:#ffa500;stroke-opacity:0.8;" x="298.661538" xlink:href="#m4610fb4032" y="149.627289"/>
     <use style="fill:#ffa500;fill-opacity:0.8;stroke:#ffa500;stroke-opacity:0.8;" x="144.138462" xlink:href="#m4610fb4032" y="135.119199"/>
     <use style="fill:#ffa500;fill-opacity:0.8;stroke:#ffa500;stroke-opacity:0.8;" x="144.138462" xlink:href="#m4610fb4032" y="77.086839"/>
     <use style="fill:#ffa500;fill-opacity:0.8;stroke:#ffa500;stroke-opacity:0.8;" x="195.646154" xlink:href="#m4610fb4032" y="113.357064"/>
     <use style="fill:#ffa500;fill-opacity:0.8;stroke:#ffa500;stroke-opacity:0.8;" x="260.030769" xlink:href="#m4610fb4032" y="222.16774"/>
     <use style="fill:#ffa500;fill-opacity:0.8;stroke:#ffa500;stroke-opacity:0.8;" x="144.138462" xlink:href="#m4610fb4032" y="73.459817"/>
     <use style="fill:#ffa500;fill-opacity:0.8;stroke:#ffa500;stroke-opacity:0.8;" x="234.276923" xlink:href="#m4610fb4032" y="162.321868"/>
     <use style="fill:#ffa500;fill-opacity:0.8;stroke:#ffa500;stroke-opacity:0.8;" x="221.4" xlink:href="#m4610fb4032" y="216.727206"/>
     <use style="fill:#ffa500;fill-opacity:0.8;stroke:#ffa500;stroke-opacity:0.8;" x="298.661538" xlink:href="#m4610fb4032" y="116.984087"/>
     <use style="fill:#ffa500;fill-opacity:0.8;stroke:#ffa500;stroke-opacity:0.8;" x="221.4" xlink:href="#m4610fb4032" y="58.951726"/>
     <use style="fill:#ffa500;fill-opacity:0.8;stroke:#ffa500;stroke-opacity:0.8;" x="208.523077" xlink:href="#m4610fb4032" y="51.697681"/>
     <use style="fill:#ffa500;fill-opacity:0.8;stroke:#ffa500;stroke-opacity:0.8;" x="208.523077" xlink:href="#m4610fb4032" y="182.270492"/>
     <use style="fill:#ffa500;fill-opacity:0.8;stroke:#ffa500;stroke-opacity:0.8;" x="169.892308" xlink:href="#m4610fb4032" y="149.627289"/>
     <use style="fill:#ffa500;fill-opacity:0.8;stroke:#ffa500;stroke-opacity:0.8;" x="221.4" xlink:href="#m4610fb4032" y="173.202936"/>
     <use style="fill:#ffa500;fill-opacity:0.8;stroke:#ffa500;stroke-opacity:0.8;" x="311.538462" xlink:href="#m4610fb4032" y="126.051643"/>
     <use style="fill:#ffa500;fill-opacity:0.8;stroke:#ffa500;stroke-opacity:0.8;" x="260.030769" xlink:href="#m4610fb4032" y="127.865154"/>
     <use style="fill:#ffa500;fill-opacity:0.8;stroke:#ffa500;stroke-opacity:0.8;" x="260.030769" xlink:href="#m4610fb4032" y="115.170575"/>
     <use style="fill:#ffa500;fill-opacity:0.8;stroke:#ffa500;stroke-opacity:0.8;" x="195.646154" xlink:href="#m4610fb4032" y="151.440801"/>
     <use style="fill:#ffa500;fill-opacity:0.8;stroke:#ffa500;stroke-opacity:0.8;" x="234.276923" xlink:href="#m4610fb4032" y="60.765238"/>
     <use style="fill:#ffa500;fill-opacity:0.8;stroke:#ffa500;stroke-opacity:0.8;" x="234.276923" xlink:href="#m4610fb4032" y="151.440801"/>
     <use style="fill:#ffa500;fill-opacity:0.8;stroke:#ffa500;stroke-opacity:0.8;" x="208.523077" xlink:href="#m4610fb4032" y="196.778582"/>
     <use style="fill:#ffa500;fill-opacity:0.8;stroke:#ffa500;stroke-opacity:0.8;" x="195.646154" xlink:href="#m4610fb4032" y="185.897515"/>
     <use style="fill:#ffa500;fill-opacity:0.8;stroke:#ffa500;stroke-opacity:0.8;" x="131.261538" xlink:href="#m4610fb4032" y="202.219116"/>
     <use style="fill:#ffa500;fill-opacity:0.8;stroke:#ffa500;stroke-opacity:0.8;" x="118.384615" xlink:href="#m4610fb4032" y="124.238132"/>
     <use style="fill:#ffa500;fill-opacity:0.8;stroke:#ffa500;stroke-opacity:0.8;" x="182.769231" xlink:href="#m4610fb4032" y="124.238132"/>
     <use style="fill:#ffa500;fill-opacity:0.8;stroke:#ffa500;stroke-opacity:0.8;" x="311.538462" xlink:href="#m4610fb4032" y="225.794762"/>
     <use style="fill:#ffa500;fill-opacity:0.8;stroke:#ffa500;stroke-opacity:0.8;" x="298.661538" xlink:href="#m4610fb4032" y="180.456981"/>
     <use style="fill:#ffa500;fill-opacity:0.8;stroke:#ffa500;stroke-opacity:0.8;" x="247.153846" xlink:href="#m4610fb4032" y="106.103019"/>
     <use style="fill:#ffa500;fill-opacity:0.8;stroke:#ffa500;stroke-opacity:0.8;" x="298.661538" xlink:href="#m4610fb4032" y="113.357064"/>
     <use style="fill:#ffa500;fill-opacity:0.8;stroke:#ffa500;stroke-opacity:0.8;" x="260.030769" xlink:href="#m4610fb4032" y="133.305688"/>
     <use style="fill:#ffa500;fill-opacity:0.8;stroke:#ffa500;stroke-opacity:0.8;" x="221.4" xlink:href="#m4610fb4032" y="173.202936"/>
     <use style="fill:#ffa500;fill-opacity:0.8;stroke:#ffa500;stroke-opacity:0.8;" x="118.384615" xlink:href="#m4610fb4032" y="104.289508"/>
     <use style="fill:#ffa500;fill-opacity:0.8;stroke:#ffa500;stroke-opacity:0.8;" x="272.907692" xlink:href="#m4610fb4032" y="193.15156"/>
     <use style="fill:#ffa500;fill-opacity:0.8;stroke:#ffa500;stroke-opacity:0.8;" x="144.138462" xlink:href="#m4610fb4032" y="115.170575"/>
     <use style="fill:#ffa500;fill-opacity:0.8;stroke:#ffa500;stroke-opacity:0.8;" x="182.769231" xlink:href="#m4610fb4032" y="115.170575"/>
     <use style="fill:#ffa500;fill-opacity:0.8;stroke:#ffa500;stroke-opacity:0.8;" x="79.753846" xlink:href="#m4610fb4032" y="204.032627"/>
     <use style="fill:#ffa500;fill-opacity:0.8;stroke:#ffa500;stroke-opacity:0.8;" x="144.138462" xlink:href="#m4610fb4032" y="149.627289"/>
    </g>
   </g>
   <g id="PolyCollection_1">
    <path clip-path="url(#p4650ef553f)" d="M 54 111.701293 
L 54 164.340927 
L 57.381818 163.900988 
L 60.763636 163.461048 
L 64.145455 163.021109 
L 67.527273 162.581169 
L 70.909091 162.141229 
L 74.290909 161.773549 
L 77.672727 161.581406 
L 81.054545 161.196413 
L 84.436364 160.667416 
L 87.818182 160.138419 
L 91.2 159.609422 
L 94.581818 159.080425 
L 97.963636 158.621713 
L 101.345455 158.268554 
L 104.727273 157.834789 
L 108.109091 157.356414 
L 111.490909 156.878039 
L 114.872727 156.436646 
L 118.254545 156.000658 
L 121.636364 155.739068 
L 125.018182 155.48249 
L 128.4 155.223261 
L 131.781818 154.92211 
L 135.163636 154.281806 
L 138.545455 153.779137 
L 141.927273 153.344099 
L 145.309091 153.044717 
L 148.690909 152.733356 
L 152.072727 152.448282 
L 155.454545 152.151318 
L 158.836364 151.890009 
L 162.218182 151.660374 
L 165.6 151.509846 
L 168.981818 151.376158 
L 172.363636 151.049382 
L 175.745455 150.970476 
L 179.127273 150.748817 
L 182.509091 150.485863 
L 185.890909 150.238413 
L 189.272727 149.841068 
L 192.654545 149.714371 
L 196.036364 149.680601 
L 199.418182 149.786506 
L 202.8 149.824476 
L 206.181818 149.971759 
L 209.563636 149.901899 
L 212.945455 150.088439 
L 216.327273 150.121404 
L 219.709091 150.088529 
L 223.090909 150.445111 
L 226.472727 150.491487 
L 229.854545 150.612153 
L 233.236364 150.75101 
L 236.618182 150.975547 
L 240 151.125709 
L 243.381818 151.425937 
L 246.763636 151.691878 
L 250.145455 152.007241 
L 253.527273 152.281557 
L 256.909091 152.734713 
L 260.290909 153.125895 
L 263.672727 153.506576 
L 267.054545 154.060055 
L 270.436364 154.481018 
L 273.818182 154.873423 
L 277.2 155.633538 
L 280.581818 156.067003 
L 283.963636 156.505936 
L 287.345455 157.062491 
L 290.727273 157.668037 
L 294.109091 158.010039 
L 297.490909 158.352998 
L 300.872727 158.807568 
L 304.254545 159.263197 
L 307.636364 159.718827 
L 311.018182 160.171565 
L 314.4 160.622031 
L 317.781818 161.059355 
L 321.163636 161.399062 
L 324.545455 161.983559 
L 327.927273 162.44516 
L 331.309091 162.897741 
L 334.690909 163.345365 
L 338.072727 163.787729 
L 341.454545 164.247536 
L 344.836364 164.707681 
L 348.218182 165.219017 
L 351.6 165.745071 
L 354.981818 166.116084 
L 358.363636 166.521876 
L 361.745455 166.975822 
L 365.127273 167.428889 
L 368.509091 167.892779 
L 371.890909 168.357053 
L 375.272727 168.821327 
L 378.654545 169.296757 
L 382.036364 169.884144 
L 385.418182 170.415145 
L 388.8 170.98844 
L 388.8 113.784049 
L 388.8 113.784049 
L 385.418182 114.24278 
L 382.036364 114.701511 
L 378.654545 115.160233 
L 375.272727 115.541071 
L 371.890909 115.889363 
L 368.509091 116.299788 
L 365.127273 116.681306 
L 361.745455 117.186822 
L 358.363636 117.639693 
L 354.981818 118.034234 
L 351.6 118.444484 
L 348.218182 119.030207 
L 344.836364 119.612932 
L 341.454545 120.135839 
L 338.072727 120.555864 
L 334.690909 120.975888 
L 331.309091 121.395913 
L 327.927273 121.815938 
L 324.545455 122.235963 
L 321.163636 122.655988 
L 317.781818 123.076012 
L 314.4 123.496037 
L 311.018182 123.999749 
L 307.636364 124.479244 
L 304.254545 124.952893 
L 300.872727 125.240325 
L 297.490909 125.591034 
L 294.109091 125.908242 
L 290.727273 126.100866 
L 287.345455 126.726787 
L 283.963636 127.238115 
L 280.581818 127.65182 
L 277.2 127.93614 
L 273.818182 128.295463 
L 270.436364 128.538447 
L 267.054545 128.972889 
L 263.672727 128.932022 
L 260.290909 129.137061 
L 256.909091 129.337189 
L 253.527273 129.442509 
L 250.145455 129.872765 
L 246.763636 130.12494 
L 243.381818 130.329336 
L 240 130.772026 
L 236.618182 131.086124 
L 233.236364 131.07846 
L 229.854545 131.331997 
L 226.472727 131.427989 
L 223.090909 131.267608 
L 219.709091 131.276059 
L 216.327273 131.271923 
L 212.945455 131.040678 
L 209.563636 130.94896 
L 206.181818 130.671549 
L 202.8 130.634445 
L 199.418182 130.409616 
L 196.036364 130.201274 
L 192.654545 129.976262 
L 189.272727 129.701114 
L 185.890909 129.478307 
L 182.509091 129.129638 
L 179.127273 128.831616 
L 175.745455 128.579862 
L 172.363636 128.510649 
L 168.981818 128.076399 
L 165.6 127.647028 
L 162.218182 127.346099 
L 158.836364 126.79814 
L 155.454545 126.404397 
L 152.072727 125.801666 
L 148.690909 125.384329 
L 145.309091 125.01303 
L 141.927273 124.437598 
L 138.545455 123.970097 
L 135.163636 123.525687 
L 131.781818 123.069555 
L 128.4 122.613424 
L 125.018182 122.157293 
L 121.636364 121.701162 
L 118.254545 121.245031 
L 114.872727 120.789883 
L 111.490909 120.238162 
L 108.109091 119.715999 
L 104.727273 119.164047 
L 101.345455 118.598341 
L 97.963636 118.122171 
L 94.581818 117.646322 
L 91.2 117.170472 
L 87.818182 116.694622 
L 84.436364 116.182436 
L 81.054545 115.627659 
L 77.672727 115.131687 
L 74.290909 114.525371 
L 70.909091 114.152207 
L 67.527273 113.630575 
L 64.145455 113.083356 
L 60.763636 112.669909 
L 57.381818 112.192826 
L 54 111.701293 
z
" style="fill:#ffa500;fill-opacity:0.15;"/>
   </g>
   <g id="matplotlib.axis_1">
    <g id="xtick_1">
     <g id="line2d_1">
      <defs>
       <path d="M 0 0 
L 0 3.5 
" id="md9d2b4d1e2" style="stroke:#000000;stroke-width:0.8;"/>
      </defs>
      <g>
       <use style="stroke:#000000;stroke-width:0.8;" x="54" xlink:href="#md9d2b4d1e2" y="252"/>
      </g>
     </g>
     <g id="text_1">
      <!-- 0 -->
      <g transform="translate(50.81875 266.598437)scale(0.1 -0.1)">
       <defs>
        <path d="M 31.78125 66.40625 
Q 24.171875 66.40625 20.328125 58.90625 
Q 16.5 51.421875 16.5 36.375 
Q 16.5 21.390625 20.328125 13.890625 
Q 24.171875 6.390625 31.78125 6.390625 
Q 39.453125 6.390625 43.28125 13.890625 
Q 47.125 21.390625 47.125 36.375 
Q 47.125 51.421875 43.28125 58.90625 
Q 39.453125 66.40625 31.78125 66.40625 
z
M 31.78125 74.21875 
Q 44.046875 74.21875 50.515625 64.515625 
Q 56.984375 54.828125 56.984375 36.375 
Q 56.984375 17.96875 50.515625 8.265625 
Q 44.046875 -1.421875 31.78125 -1.421875 
Q 19.53125 -1.421875 13.0625 8.265625 
Q 6.59375 17.96875 6.59375 36.375 
Q 6.59375 54.828125 13.0625 64.515625 
Q 19.53125 74.21875 31.78125 74.21875 
z
" id="DejaVuSans-48"/>
       </defs>
       <use xlink:href="#DejaVuSans-48"/>
      </g>
     </g>
    </g>
    <g id="xtick_2">
     <g id="line2d_2">
      <g>
       <use style="stroke:#000000;stroke-width:0.8;" x="118.384615" xlink:href="#md9d2b4d1e2" y="252"/>
      </g>
     </g>
     <g id="text_2">
      <!-- 5 -->
      <g transform="translate(115.203365 266.598437)scale(0.1 -0.1)">
       <defs>
        <path d="M 10.796875 72.90625 
L 49.515625 72.90625 
L 49.515625 64.59375 
L 19.828125 64.59375 
L 19.828125 46.734375 
Q 21.96875 47.46875 24.109375 47.828125 
Q 26.265625 48.1875 28.421875 48.1875 
Q 40.625 48.1875 47.75 41.5 
Q 54.890625 34.8125 54.890625 23.390625 
Q 54.890625 11.625 47.5625 5.09375 
Q 40.234375 -1.421875 26.90625 -1.421875 
Q 22.3125 -1.421875 17.546875 -0.640625 
Q 12.796875 0.140625 7.71875 1.703125 
L 7.71875 11.625 
Q 12.109375 9.234375 16.796875 8.0625 
Q 21.484375 6.890625 26.703125 6.890625 
Q 35.15625 6.890625 40.078125 11.328125 
Q 45.015625 15.765625 45.015625 23.390625 
Q 45.015625 31 40.078125 35.4375 
Q 35.15625 39.890625 26.703125 39.890625 
Q 22.75 39.890625 18.8125 39.015625 
Q 14.890625 38.140625 10.796875 36.28125 
z
" id="DejaVuSans-53"/>
       </defs>
       <use xlink:href="#DejaVuSans-53"/>
      </g>
     </g>
    </g>
    <g id="xtick_3">
     <g id="line2d_3">
      <g>
       <use style="stroke:#000000;stroke-width:0.8;" x="182.769231" xlink:href="#md9d2b4d1e2" y="252"/>
      </g>
     </g>
     <g id="text_3">
      <!-- 10 -->
      <g transform="translate(176.406731 266.598437)scale(0.1 -0.1)">
       <defs>
        <path d="M 12.40625 8.296875 
L 28.515625 8.296875 
L 28.515625 63.921875 
L 10.984375 60.40625 
L 10.984375 69.390625 
L 28.421875 72.90625 
L 38.28125 72.90625 
L 38.28125 8.296875 
L 54.390625 8.296875 
L 54.390625 0 
L 12.40625 0 
z
" id="DejaVuSans-49"/>
       </defs>
       <use xlink:href="#DejaVuSans-49"/>
       <use x="63.623047" xlink:href="#DejaVuSans-48"/>
      </g>
     </g>
    </g>
    <g id="xtick_4">
     <g id="line2d_4">
      <g>
       <use style="stroke:#000000;stroke-width:0.8;" x="247.153846" xlink:href="#md9d2b4d1e2" y="252"/>
      </g>
     </g>
     <g id="text_4">
      <!-- 15 -->
      <g transform="translate(240.791346 266.598437)scale(0.1 -0.1)">
       <use xlink:href="#DejaVuSans-49"/>
       <use x="63.623047" xlink:href="#DejaVuSans-53"/>
      </g>
     </g>
    </g>
    <g id="xtick_5">
     <g id="line2d_5">
      <g>
       <use style="stroke:#000000;stroke-width:0.8;" x="311.538462" xlink:href="#md9d2b4d1e2" y="252"/>
      </g>
     </g>
     <g id="text_5">
      <!-- 20 -->
      <g transform="translate(305.175962 266.598437)scale(0.1 -0.1)">
       <defs>
        <path d="M 19.1875 8.296875 
L 53.609375 8.296875 
L 53.609375 0 
L 7.328125 0 
L 7.328125 8.296875 
Q 12.9375 14.109375 22.625 23.890625 
Q 32.328125 33.6875 34.8125 36.53125 
Q 39.546875 41.84375 41.421875 45.53125 
Q 43.3125 49.21875 43.3125 52.78125 
Q 43.3125 58.59375 39.234375 62.25 
Q 35.15625 65.921875 28.609375 65.921875 
Q 23.96875 65.921875 18.8125 64.3125 
Q 13.671875 62.703125 7.8125 59.421875 
L 7.8125 69.390625 
Q 13.765625 71.78125 18.9375 73 
Q 24.125 74.21875 28.421875 74.21875 
Q 39.75 74.21875 46.484375 68.546875 
Q 53.21875 62.890625 53.21875 53.421875 
Q 53.21875 48.921875 51.53125 44.890625 
Q 49.859375 40.875 45.40625 35.40625 
Q 44.1875 33.984375 37.640625 27.21875 
Q 31.109375 20.453125 19.1875 8.296875 
z
" id="DejaVuSans-50"/>
       </defs>
       <use xlink:href="#DejaVuSans-50"/>
       <use x="63.623047" xlink:href="#DejaVuSans-48"/>
      </g>
     </g>
    </g>
    <g id="xtick_6">
     <g id="line2d_6">
      <g>
       <use style="stroke:#000000;stroke-width:0.8;" x="375.923077" xlink:href="#md9d2b4d1e2" y="252"/>
      </g>
     </g>
     <g id="text_6">
      <!-- 25 -->
      <g transform="translate(369.560577 266.598437)scale(0.1 -0.1)">
       <use xlink:href="#DejaVuSans-50"/>
       <use x="63.623047" xlink:href="#DejaVuSans-53"/>
      </g>
     </g>
    </g>
    <g id="text_7">
     <!-- IRI_PD -->
     <g transform="translate(205.610938 279.998438)scale(0.1 -0.1)">
      <defs>
       <path d="M 9.8125 72.90625 
L 19.671875 72.90625 
L 19.671875 0 
L 9.8125 0 
z
" id="DejaVuSans-73"/>
       <path d="M 44.390625 34.1875 
Q 47.5625 33.109375 50.5625 29.59375 
Q 53.5625 26.078125 56.59375 19.921875 
L 66.609375 0 
L 56 0 
L 46.6875 18.703125 
Q 43.0625 26.03125 39.671875 28.421875 
Q 36.28125 30.8125 30.421875 30.8125 
L 19.671875 30.8125 
L 19.671875 0 
L 9.8125 0 
L 9.8125 72.90625 
L 32.078125 72.90625 
Q 44.578125 72.90625 50.734375 67.671875 
Q 56.890625 62.453125 56.890625 51.90625 
Q 56.890625 45.015625 53.6875 40.46875 
Q 50.484375 35.9375 44.390625 34.1875 
z
M 19.671875 64.796875 
L 19.671875 38.921875 
L 32.078125 38.921875 
Q 39.203125 38.921875 42.84375 42.21875 
Q 46.484375 45.515625 46.484375 51.90625 
Q 46.484375 58.296875 42.84375 61.546875 
Q 39.203125 64.796875 32.078125 64.796875 
z
" id="DejaVuSans-82"/>
       <path d="M 50.984375 -16.609375 
L 50.984375 -23.578125 
L -0.984375 -23.578125 
L -0.984375 -16.609375 
z
" id="DejaVuSans-95"/>
       <path d="M 19.671875 64.796875 
L 19.671875 37.40625 
L 32.078125 37.40625 
Q 38.96875 37.40625 42.71875 40.96875 
Q 46.484375 44.53125 46.484375 51.125 
Q 46.484375 57.671875 42.71875 61.234375 
Q 38.96875 64.796875 32.078125 64.796875 
z
M 9.8125 72.90625 
L 32.078125 72.90625 
Q 44.34375 72.90625 50.609375 67.359375 
Q 56.890625 61.8125 56.890625 51.125 
Q 56.890625 40.328125 50.609375 34.8125 
Q 44.34375 29.296875 32.078125 29.296875 
L 19.671875 29.296875 
L 19.671875 0 
L 9.8125 0 
z
" id="DejaVuSans-80"/>
       <path d="M 19.671875 64.796875 
L 19.671875 8.109375 
L 31.59375 8.109375 
Q 46.6875 8.109375 53.6875 14.9375 
Q 60.6875 21.78125 60.6875 36.53125 
Q 60.6875 51.171875 53.6875 57.984375 
Q 46.6875 64.796875 31.59375 64.796875 
z
M 9.8125 72.90625 
L 30.078125 72.90625 
Q 51.265625 72.90625 61.171875 64.09375 
Q 71.09375 55.28125 71.09375 36.53125 
Q 71.09375 17.671875 61.125 8.828125 
Q 51.171875 0 30.078125 0 
L 9.8125 0 
z
" id="DejaVuSans-68"/>
      </defs>
      <use xlink:href="#DejaVuSans-73"/>
      <use x="29.492188" xlink:href="#DejaVuSans-82"/>
      <use x="98.974609" xlink:href="#DejaVuSans-73"/>
      <use x="128.466797" xlink:href="#DejaVuSans-95"/>
      <use x="178.466797" xlink:href="#DejaVuSans-80"/>
      <use x="238.769531" xlink:href="#DejaVuSans-68"/>
     </g>
    </g>
   </g>
   <g id="matplotlib.axis_2">
    <g id="ytick_1">
     <g id="line2d_7">
      <defs>
       <path d="M 0 0 
L -3.5 0 
" id="m2f739f1ce3" style="stroke:#000000;stroke-width:0.8;"/>
      </defs>
      <g>
       <use style="stroke:#000000;stroke-width:0.8;" x="54" xlink:href="#m2f739f1ce3" y="245.743386"/>
      </g>
     </g>
     <g id="text_8">
      <!-- 0.2 -->
      <g transform="translate(31.096875 249.542605)scale(0.1 -0.1)">
       <defs>
        <path d="M 10.6875 12.40625 
L 21 12.40625 
L 21 0 
L 10.6875 0 
z
" id="DejaVuSans-46"/>
       </defs>
       <use xlink:href="#DejaVuSans-48"/>
       <use x="63.623047" xlink:href="#DejaVuSans-46"/>
       <use x="95.410156" xlink:href="#DejaVuSans-50"/>
      </g>
     </g>
    </g>
    <g id="ytick_2">
     <g id="line2d_8">
      <g>
       <use style="stroke:#000000;stroke-width:0.8;" x="54" xlink:href="#m2f739f1ce3" y="209.473161"/>
      </g>
     </g>
     <g id="text_9">
      <!-- 0.4 -->
      <g transform="translate(31.096875 213.27238)scale(0.1 -0.1)">
       <defs>
        <path d="M 37.796875 64.3125 
L 12.890625 25.390625 
L 37.796875 25.390625 
z
M 35.203125 72.90625 
L 47.609375 72.90625 
L 47.609375 25.390625 
L 58.015625 25.390625 
L 58.015625 17.1875 
L 47.609375 17.1875 
L 47.609375 0 
L 37.796875 0 
L 37.796875 17.1875 
L 4.890625 17.1875 
L 4.890625 26.703125 
z
" id="DejaVuSans-52"/>
       </defs>
       <use xlink:href="#DejaVuSans-48"/>
       <use x="63.623047" xlink:href="#DejaVuSans-46"/>
       <use x="95.410156" xlink:href="#DejaVuSans-52"/>
      </g>
     </g>
    </g>
    <g id="ytick_3">
     <g id="line2d_9">
      <g>
       <use style="stroke:#000000;stroke-width:0.8;" x="54" xlink:href="#m2f739f1ce3" y="173.202936"/>
      </g>
     </g>
     <g id="text_10">
      <!-- 0.6 -->
      <g transform="translate(31.096875 177.002155)scale(0.1 -0.1)">
       <defs>
        <path d="M 33.015625 40.375 
Q 26.375 40.375 22.484375 35.828125 
Q 18.609375 31.296875 18.609375 23.390625 
Q 18.609375 15.53125 22.484375 10.953125 
Q 26.375 6.390625 33.015625 6.390625 
Q 39.65625 6.390625 43.53125 10.953125 
Q 47.40625 15.53125 47.40625 23.390625 
Q 47.40625 31.296875 43.53125 35.828125 
Q 39.65625 40.375 33.015625 40.375 
z
M 52.59375 71.296875 
L 52.59375 62.3125 
Q 48.875 64.0625 45.09375 64.984375 
Q 41.3125 65.921875 37.59375 65.921875 
Q 27.828125 65.921875 22.671875 59.328125 
Q 17.53125 52.734375 16.796875 39.40625 
Q 19.671875 43.65625 24.015625 45.921875 
Q 28.375 48.1875 33.59375 48.1875 
Q 44.578125 48.1875 50.953125 41.515625 
Q 57.328125 34.859375 57.328125 23.390625 
Q 57.328125 12.15625 50.6875 5.359375 
Q 44.046875 -1.421875 33.015625 -1.421875 
Q 20.359375 -1.421875 13.671875 8.265625 
Q 6.984375 17.96875 6.984375 36.375 
Q 6.984375 53.65625 15.1875 63.9375 
Q 23.390625 74.21875 37.203125 74.21875 
Q 40.921875 74.21875 44.703125 73.484375 
Q 48.484375 72.75 52.59375 71.296875 
z
" id="DejaVuSans-54"/>
       </defs>
       <use xlink:href="#DejaVuSans-48"/>
       <use x="63.623047" xlink:href="#DejaVuSans-46"/>
       <use x="95.410156" xlink:href="#DejaVuSans-54"/>
      </g>
     </g>
    </g>
    <g id="ytick_4">
     <g id="line2d_10">
      <g>
       <use style="stroke:#000000;stroke-width:0.8;" x="54" xlink:href="#m2f739f1ce3" y="136.932711"/>
      </g>
     </g>
     <g id="text_11">
      <!-- 0.8 -->
      <g transform="translate(31.096875 140.731929)scale(0.1 -0.1)">
       <defs>
        <path d="M 31.78125 34.625 
Q 24.75 34.625 20.71875 30.859375 
Q 16.703125 27.09375 16.703125 20.515625 
Q 16.703125 13.921875 20.71875 10.15625 
Q 24.75 6.390625 31.78125 6.390625 
Q 38.8125 6.390625 42.859375 10.171875 
Q 46.921875 13.96875 46.921875 20.515625 
Q 46.921875 27.09375 42.890625 30.859375 
Q 38.875 34.625 31.78125 34.625 
z
M 21.921875 38.8125 
Q 15.578125 40.375 12.03125 44.71875 
Q 8.5 49.078125 8.5 55.328125 
Q 8.5 64.0625 14.71875 69.140625 
Q 20.953125 74.21875 31.78125 74.21875 
Q 42.671875 74.21875 48.875 69.140625 
Q 55.078125 64.0625 55.078125 55.328125 
Q 55.078125 49.078125 51.53125 44.71875 
Q 48 40.375 41.703125 38.8125 
Q 48.828125 37.15625 52.796875 32.3125 
Q 56.78125 27.484375 56.78125 20.515625 
Q 56.78125 9.90625 50.3125 4.234375 
Q 43.84375 -1.421875 31.78125 -1.421875 
Q 19.734375 -1.421875 13.25 4.234375 
Q 6.78125 9.90625 6.78125 20.515625 
Q 6.78125 27.484375 10.78125 32.3125 
Q 14.796875 37.15625 21.921875 38.8125 
z
M 18.3125 54.390625 
Q 18.3125 48.734375 21.84375 45.5625 
Q 25.390625 42.390625 31.78125 42.390625 
Q 38.140625 42.390625 41.71875 45.5625 
Q 45.3125 48.734375 45.3125 54.390625 
Q 45.3125 60.0625 41.71875 63.234375 
Q 38.140625 66.40625 31.78125 66.40625 
Q 25.390625 66.40625 21.84375 63.234375 
Q 18.3125 60.0625 18.3125 54.390625 
z
" id="DejaVuSans-56"/>
       </defs>
       <use xlink:href="#DejaVuSans-48"/>
       <use x="63.623047" xlink:href="#DejaVuSans-46"/>
       <use x="95.410156" xlink:href="#DejaVuSans-56"/>
      </g>
     </g>
    </g>
    <g id="ytick_5">
     <g id="line2d_11">
      <g>
       <use style="stroke:#000000;stroke-width:0.8;" x="54" xlink:href="#m2f739f1ce3" y="100.662485"/>
      </g>
     </g>
     <g id="text_12">
      <!-- 1.0 -->
      <g transform="translate(31.096875 104.461704)scale(0.1 -0.1)">
       <use xlink:href="#DejaVuSans-49"/>
       <use x="63.623047" xlink:href="#DejaVuSans-46"/>
       <use x="95.410156" xlink:href="#DejaVuSans-48"/>
      </g>
     </g>
    </g>
    <g id="ytick_6">
     <g id="line2d_12">
      <g>
       <use style="stroke:#000000;stroke-width:0.8;" x="54" xlink:href="#m2f739f1ce3" y="64.39226"/>
      </g>
     </g>
     <g id="text_13">
      <!-- 1.2 -->
      <g transform="translate(31.096875 68.191479)scale(0.1 -0.1)">
       <use xlink:href="#DejaVuSans-49"/>
       <use x="63.623047" xlink:href="#DejaVuSans-46"/>
       <use x="95.410156" xlink:href="#DejaVuSans-50"/>
      </g>
     </g>
    </g>
    <g id="text_14">
     <!-- Total Spent on Social Experiences -->
     <g transform="translate(24.60125 244.235625)rotate(-90)scale(0.12 -0.12)">
      <defs>
       <path d="M -0.296875 72.90625 
L 61.375 72.90625 
L 61.375 64.59375 
L 35.5 64.59375 
L 35.5 0 
L 25.59375 0 
L 25.59375 64.59375 
L -0.296875 64.59375 
z
" id="DejaVuSans-84"/>
       <path d="M 30.609375 48.390625 
Q 23.390625 48.390625 19.1875 42.75 
Q 14.984375 37.109375 14.984375 27.296875 
Q 14.984375 17.484375 19.15625 11.84375 
Q 23.34375 6.203125 30.609375 6.203125 
Q 37.796875 6.203125 41.984375 11.859375 
Q 46.1875 17.53125 46.1875 27.296875 
Q 46.1875 37.015625 41.984375 42.703125 
Q 37.796875 48.390625 30.609375 48.390625 
z
M 30.609375 56 
Q 42.328125 56 49.015625 48.375 
Q 55.71875 40.765625 55.71875 27.296875 
Q 55.71875 13.875 49.015625 6.21875 
Q 42.328125 -1.421875 30.609375 -1.421875 
Q 18.84375 -1.421875 12.171875 6.21875 
Q 5.515625 13.875 5.515625 27.296875 
Q 5.515625 40.765625 12.171875 48.375 
Q 18.84375 56 30.609375 56 
z
" id="DejaVuSans-111"/>
       <path d="M 18.3125 70.21875 
L 18.3125 54.6875 
L 36.8125 54.6875 
L 36.8125 47.703125 
L 18.3125 47.703125 
L 18.3125 18.015625 
Q 18.3125 11.328125 20.140625 9.421875 
Q 21.96875 7.515625 27.59375 7.515625 
L 36.8125 7.515625 
L 36.8125 0 
L 27.59375 0 
Q 17.1875 0 13.234375 3.875 
Q 9.28125 7.765625 9.28125 18.015625 
L 9.28125 47.703125 
L 2.6875 47.703125 
L 2.6875 54.6875 
L 9.28125 54.6875 
L 9.28125 70.21875 
z
" id="DejaVuSans-116"/>
       <path d="M 34.28125 27.484375 
Q 23.390625 27.484375 19.1875 25 
Q 14.984375 22.515625 14.984375 16.5 
Q 14.984375 11.71875 18.140625 8.90625 
Q 21.296875 6.109375 26.703125 6.109375 
Q 34.1875 6.109375 38.703125 11.40625 
Q 43.21875 16.703125 43.21875 25.484375 
L 43.21875 27.484375 
z
M 52.203125 31.203125 
L 52.203125 0 
L 43.21875 0 
L 43.21875 8.296875 
Q 40.140625 3.328125 35.546875 0.953125 
Q 30.953125 -1.421875 24.3125 -1.421875 
Q 15.921875 -1.421875 10.953125 3.296875 
Q 6 8.015625 6 15.921875 
Q 6 25.140625 12.171875 29.828125 
Q 18.359375 34.515625 30.609375 34.515625 
L 43.21875 34.515625 
L 43.21875 35.40625 
Q 43.21875 41.609375 39.140625 45 
Q 35.0625 48.390625 27.6875 48.390625 
Q 23 48.390625 18.546875 47.265625 
Q 14.109375 46.140625 10.015625 43.890625 
L 10.015625 52.203125 
Q 14.9375 54.109375 19.578125 55.046875 
Q 24.21875 56 28.609375 56 
Q 40.484375 56 46.34375 49.84375 
Q 52.203125 43.703125 52.203125 31.203125 
z
" id="DejaVuSans-97"/>
       <path d="M 9.421875 75.984375 
L 18.40625 75.984375 
L 18.40625 0 
L 9.421875 0 
z
" id="DejaVuSans-108"/>
       <path id="DejaVuSans-32"/>
       <path d="M 53.515625 70.515625 
L 53.515625 60.890625 
Q 47.90625 63.578125 42.921875 64.890625 
Q 37.9375 66.21875 33.296875 66.21875 
Q 25.25 66.21875 20.875 63.09375 
Q 16.5 59.96875 16.5 54.203125 
Q 16.5 49.359375 19.40625 46.890625 
Q 22.3125 44.4375 30.421875 42.921875 
L 36.375 41.703125 
Q 47.40625 39.59375 52.65625 34.296875 
Q 57.90625 29 57.90625 20.125 
Q 57.90625 9.515625 50.796875 4.046875 
Q 43.703125 -1.421875 29.984375 -1.421875 
Q 24.8125 -1.421875 18.96875 -0.25 
Q 13.140625 0.921875 6.890625 3.21875 
L 6.890625 13.375 
Q 12.890625 10.015625 18.65625 8.296875 
Q 24.421875 6.59375 29.984375 6.59375 
Q 38.421875 6.59375 43.015625 9.90625 
Q 47.609375 13.234375 47.609375 19.390625 
Q 47.609375 24.75 44.3125 27.78125 
Q 41.015625 30.8125 33.5 32.328125 
L 27.484375 33.5 
Q 16.453125 35.6875 11.515625 40.375 
Q 6.59375 45.0625 6.59375 53.421875 
Q 6.59375 63.09375 13.40625 68.65625 
Q 20.21875 74.21875 32.171875 74.21875 
Q 37.3125 74.21875 42.625 73.28125 
Q 47.953125 72.359375 53.515625 70.515625 
z
" id="DejaVuSans-83"/>
       <path d="M 18.109375 8.203125 
L 18.109375 -20.796875 
L 9.078125 -20.796875 
L 9.078125 54.6875 
L 18.109375 54.6875 
L 18.109375 46.390625 
Q 20.953125 51.265625 25.265625 53.625 
Q 29.59375 56 35.59375 56 
Q 45.5625 56 51.78125 48.09375 
Q 58.015625 40.1875 58.015625 27.296875 
Q 58.015625 14.40625 51.78125 6.484375 
Q 45.5625 -1.421875 35.59375 -1.421875 
Q 29.59375 -1.421875 25.265625 0.953125 
Q 20.953125 3.328125 18.109375 8.203125 
z
M 48.6875 27.296875 
Q 48.6875 37.203125 44.609375 42.84375 
Q 40.53125 48.484375 33.40625 48.484375 
Q 26.265625 48.484375 22.1875 42.84375 
Q 18.109375 37.203125 18.109375 27.296875 
Q 18.109375 17.390625 22.1875 11.75 
Q 26.265625 6.109375 33.40625 6.109375 
Q 40.53125 6.109375 44.609375 11.75 
Q 48.6875 17.390625 48.6875 27.296875 
z
" id="DejaVuSans-112"/>
       <path d="M 56.203125 29.59375 
L 56.203125 25.203125 
L 14.890625 25.203125 
Q 15.484375 15.921875 20.484375 11.0625 
Q 25.484375 6.203125 34.421875 6.203125 
Q 39.59375 6.203125 44.453125 7.46875 
Q 49.3125 8.734375 54.109375 11.28125 
L 54.109375 2.78125 
Q 49.265625 0.734375 44.1875 -0.34375 
Q 39.109375 -1.421875 33.890625 -1.421875 
Q 20.796875 -1.421875 13.15625 6.1875 
Q 5.515625 13.8125 5.515625 26.8125 
Q 5.515625 40.234375 12.765625 48.109375 
Q 20.015625 56 32.328125 56 
Q 43.359375 56 49.78125 48.890625 
Q 56.203125 41.796875 56.203125 29.59375 
z
M 47.21875 32.234375 
Q 47.125 39.59375 43.09375 43.984375 
Q 39.0625 48.390625 32.421875 48.390625 
Q 24.90625 48.390625 20.390625 44.140625 
Q 15.875 39.890625 15.1875 32.171875 
z
" id="DejaVuSans-101"/>
       <path d="M 54.890625 33.015625 
L 54.890625 0 
L 45.90625 0 
L 45.90625 32.71875 
Q 45.90625 40.484375 42.875 44.328125 
Q 39.84375 48.1875 33.796875 48.1875 
Q 26.515625 48.1875 22.3125 43.546875 
Q 18.109375 38.921875 18.109375 30.90625 
L 18.109375 0 
L 9.078125 0 
L 9.078125 54.6875 
L 18.109375 54.6875 
L 18.109375 46.1875 
Q 21.34375 51.125 25.703125 53.5625 
Q 30.078125 56 35.796875 56 
Q 45.21875 56 50.046875 50.171875 
Q 54.890625 44.34375 54.890625 33.015625 
z
" id="DejaVuSans-110"/>
       <path d="M 48.78125 52.59375 
L 48.78125 44.1875 
Q 44.96875 46.296875 41.140625 47.34375 
Q 37.3125 48.390625 33.40625 48.390625 
Q 24.65625 48.390625 19.8125 42.84375 
Q 14.984375 37.3125 14.984375 27.296875 
Q 14.984375 17.28125 19.8125 11.734375 
Q 24.65625 6.203125 33.40625 6.203125 
Q 37.3125 6.203125 41.140625 7.25 
Q 44.96875 8.296875 48.78125 10.40625 
L 48.78125 2.09375 
Q 45.015625 0.34375 40.984375 -0.53125 
Q 36.96875 -1.421875 32.421875 -1.421875 
Q 20.0625 -1.421875 12.78125 6.34375 
Q 5.515625 14.109375 5.515625 27.296875 
Q 5.515625 40.671875 12.859375 48.328125 
Q 20.21875 56 33.015625 56 
Q 37.15625 56 41.109375 55.140625 
Q 45.0625 54.296875 48.78125 52.59375 
z
" id="DejaVuSans-99"/>
       <path d="M 9.421875 54.6875 
L 18.40625 54.6875 
L 18.40625 0 
L 9.421875 0 
z
M 9.421875 75.984375 
L 18.40625 75.984375 
L 18.40625 64.59375 
L 9.421875 64.59375 
z
" id="DejaVuSans-105"/>
       <path d="M 9.8125 72.90625 
L 55.90625 72.90625 
L 55.90625 64.59375 
L 19.671875 64.59375 
L 19.671875 43.015625 
L 54.390625 43.015625 
L 54.390625 34.71875 
L 19.671875 34.71875 
L 19.671875 8.296875 
L 56.78125 8.296875 
L 56.78125 0 
L 9.8125 0 
z
" id="DejaVuSans-69"/>
       <path d="M 54.890625 54.6875 
L 35.109375 28.078125 
L 55.90625 0 
L 45.3125 0 
L 29.390625 21.484375 
L 13.484375 0 
L 2.875 0 
L 24.125 28.609375 
L 4.6875 54.6875 
L 15.28125 54.6875 
L 29.78125 35.203125 
L 44.28125 54.6875 
z
" id="DejaVuSans-120"/>
       <path d="M 41.109375 46.296875 
Q 39.59375 47.171875 37.8125 47.578125 
Q 36.03125 48 33.890625 48 
Q 26.265625 48 22.1875 43.046875 
Q 18.109375 38.09375 18.109375 28.8125 
L 18.109375 0 
L 9.078125 0 
L 9.078125 54.6875 
L 18.109375 54.6875 
L 18.109375 46.1875 
Q 20.953125 51.171875 25.484375 53.578125 
Q 30.03125 56 36.53125 56 
Q 37.453125 56 38.578125 55.875 
Q 39.703125 55.765625 41.0625 55.515625 
z
" id="DejaVuSans-114"/>
       <path d="M 44.28125 53.078125 
L 44.28125 44.578125 
Q 40.484375 46.53125 36.375 47.5 
Q 32.28125 48.484375 27.875 48.484375 
Q 21.1875 48.484375 17.84375 46.4375 
Q 14.5 44.390625 14.5 40.28125 
Q 14.5 37.15625 16.890625 35.375 
Q 19.28125 33.59375 26.515625 31.984375 
L 29.59375 31.296875 
Q 39.15625 29.25 43.1875 25.515625 
Q 47.21875 21.78125 47.21875 15.09375 
Q 47.21875 7.46875 41.1875 3.015625 
Q 35.15625 -1.421875 24.609375 -1.421875 
Q 20.21875 -1.421875 15.453125 -0.5625 
Q 10.6875 0.296875 5.421875 2 
L 5.421875 11.28125 
Q 10.40625 8.6875 15.234375 7.390625 
Q 20.0625 6.109375 24.8125 6.109375 
Q 31.15625 6.109375 34.5625 8.28125 
Q 37.984375 10.453125 37.984375 14.40625 
Q 37.984375 18.0625 35.515625 20.015625 
Q 33.0625 21.96875 24.703125 23.78125 
L 21.578125 24.515625 
Q 13.234375 26.265625 9.515625 29.90625 
Q 5.8125 33.546875 5.8125 39.890625 
Q 5.8125 47.609375 11.28125 51.796875 
Q 16.75 56 26.8125 56 
Q 31.78125 56 36.171875 55.265625 
Q 40.578125 54.546875 44.28125 53.078125 
z
" id="DejaVuSans-115"/>
      </defs>
      <use xlink:href="#DejaVuSans-84"/>
      <use x="44.083984" xlink:href="#DejaVuSans-111"/>
      <use x="105.265625" xlink:href="#DejaVuSans-116"/>
      <use x="144.474609" xlink:href="#DejaVuSans-97"/>
      <use x="205.753906" xlink:href="#DejaVuSans-108"/>
      <use x="233.537109" xlink:href="#DejaVuSans-32"/>
      <use x="265.324219" xlink:href="#DejaVuSans-83"/>
      <use x="328.800781" xlink:href="#DejaVuSans-112"/>
      <use x="392.277344" xlink:href="#DejaVuSans-101"/>
      <use x="453.800781" xlink:href="#DejaVuSans-110"/>
      <use x="517.179688" xlink:href="#DejaVuSans-116"/>
      <use x="556.388672" xlink:href="#DejaVuSans-32"/>
      <use x="588.175781" xlink:href="#DejaVuSans-111"/>
      <use x="649.357422" xlink:href="#DejaVuSans-110"/>
      <use x="712.736328" xlink:href="#DejaVuSans-32"/>
      <use x="744.523438" xlink:href="#DejaVuSans-83"/>
      <use x="808" xlink:href="#DejaVuSans-111"/>
      <use x="869.181641" xlink:href="#DejaVuSans-99"/>
      <use x="924.162109" xlink:href="#DejaVuSans-105"/>
      <use x="951.945312" xlink:href="#DejaVuSans-97"/>
      <use x="1013.224609" xlink:href="#DejaVuSans-108"/>
      <use x="1041.007812" xlink:href="#DejaVuSans-32"/>
      <use x="1072.794922" xlink:href="#DejaVuSans-69"/>
      <use x="1135.978516" xlink:href="#DejaVuSans-120"/>
      <use x="1195.158203" xlink:href="#DejaVuSans-112"/>
      <use x="1258.634766" xlink:href="#DejaVuSans-101"/>
      <use x="1320.158203" xlink:href="#DejaVuSans-114"/>
      <use x="1361.271484" xlink:href="#DejaVuSans-105"/>
      <use x="1389.054688" xlink:href="#DejaVuSans-101"/>
      <use x="1450.578125" xlink:href="#DejaVuSans-110"/>
      <use x="1513.957031" xlink:href="#DejaVuSans-99"/>
      <use x="1568.9375" xlink:href="#DejaVuSans-101"/>
      <use x="1630.460938" xlink:href="#DejaVuSans-115"/>
     </g>
    </g>
   </g>
   <g id="line2d_13">
    <path clip-path="url(#p4650ef553f)" d="M 54 138.141053 
L 57.381818 138.187942 
L 60.763636 138.234831 
L 64.145455 138.28172 
L 67.527273 138.328609 
L 70.909091 138.375497 
L 74.290909 138.422386 
L 77.672727 138.469275 
L 81.054545 138.516164 
L 84.436364 138.563053 
L 87.818182 138.609941 
L 91.2 138.65683 
L 94.581818 138.703719 
L 97.963636 138.750608 
L 101.345455 138.797497 
L 104.727273 138.844385 
L 108.109091 138.891274 
L 111.490909 138.938163 
L 114.872727 138.985052 
L 118.254545 139.031941 
L 121.636364 139.078829 
L 125.018182 139.125718 
L 128.4 139.172607 
L 131.781818 139.219496 
L 135.163636 139.266385 
L 138.545455 139.313273 
L 141.927273 139.360162 
L 145.309091 139.407051 
L 148.690909 139.45394 
L 152.072727 139.500829 
L 155.454545 139.547717 
L 158.836364 139.594606 
L 162.218182 139.641495 
L 165.6 139.688384 
L 168.981818 139.735273 
L 172.363636 139.782161 
L 175.745455 139.82905 
L 179.127273 139.875939 
L 182.509091 139.922828 
L 185.890909 139.969717 
L 189.272727 140.016605 
L 192.654545 140.063494 
L 196.036364 140.110383 
L 199.418182 140.157272 
L 202.8 140.204161 
L 206.181818 140.251049 
L 209.563636 140.297938 
L 212.945455 140.344827 
L 216.327273 140.391716 
L 219.709091 140.438605 
L 223.090909 140.485493 
L 226.472727 140.532382 
L 229.854545 140.579271 
L 233.236364 140.62616 
L 236.618182 140.673049 
L 240 140.719937 
L 243.381818 140.766826 
L 246.763636 140.813715 
L 250.145455 140.860604 
L 253.527273 140.907493 
L 256.909091 140.954381 
L 260.290909 141.00127 
L 263.672727 141.048159 
L 267.054545 141.095048 
L 270.436364 141.141937 
L 273.818182 141.188825 
L 277.2 141.235714 
L 280.581818 141.282603 
L 283.963636 141.329492 
L 287.345455 141.376381 
L 290.727273 141.423269 
L 294.109091 141.470158 
L 297.490909 141.517047 
L 300.872727 141.563936 
L 304.254545 141.610825 
L 307.636364 141.657713 
L 311.018182 141.704602 
L 314.4 141.751491 
L 317.781818 141.79838 
L 321.163636 141.845269 
L 324.545455 141.892157 
L 327.927273 141.939046 
L 331.309091 141.985935 
L 334.690909 142.032824 
L 338.072727 142.079713 
L 341.454545 142.126601 
L 344.836364 142.17349 
L 348.218182 142.220379 
L 351.6 142.267268 
L 354.981818 142.314157 
L 358.363636 142.361045 
L 361.745455 142.407934 
L 365.127273 142.454823 
L 368.509091 142.501712 
L 371.890909 142.548601 
L 375.272727 142.595489 
L 378.654545 142.642378 
L 382.036364 142.689267 
L 385.418182 142.736156 
L 388.8 142.783045 
" style="fill:none;stroke:#ffa500;stroke-linecap:square;stroke-width:2.25;"/>
   </g>
   <g id="patch_3">
    <path d="M 54 252 
L 54 34.56 
" style="fill:none;stroke:#000000;stroke-linecap:square;stroke-linejoin:miter;stroke-width:0.8;"/>
   </g>
   <g id="patch_4">
    <path d="M 388.8 252 
L 388.8 34.56 
" style="fill:none;stroke:#000000;stroke-linecap:square;stroke-linejoin:miter;stroke-width:0.8;"/>
   </g>
   <g id="patch_5">
    <path d="M 54 252 
L 388.8 252 
" style="fill:none;stroke:#000000;stroke-linecap:square;stroke-linejoin:miter;stroke-width:0.8;"/>
   </g>
   <g id="patch_6">
    <path d="M 54 34.56 
L 388.8 34.56 
" style="fill:none;stroke:#000000;stroke-linecap:square;stroke-linejoin:miter;stroke-width:0.8;"/>
   </g>
  </g>
 </g>
 <defs>
  <clipPath id="p4650ef553f">
   <rect height="217.44" width="334.8" x="54" y="34.56"/>
  </clipPath>
 </defs>
</svg>
